<svg width="12" height="13" viewBox="0 0 12 13" fill="none" xmlns="http://www.w3.org/2000/svg">
<g id="fi-rr-browser" clip-path="url(#clip0_269_2187)">
<path id="Vector" d="M9.5 0.982056H2.5C1.8372 0.98285 1.20178 1.2465 0.73311 1.71517C0.264441 2.18383 0.000793929 2.81926 0 3.48206L0 9.48206C0.000793929 10.1449 0.264441 10.7803 0.73311 11.2489C1.20178 11.7176 1.8372 11.9813 2.5 11.9821H9.5C10.1628 11.9813 10.7982 11.7176 11.2669 11.2489C11.7356 10.7803 11.9992 10.1449 12 9.48206V3.48206C11.9992 2.81926 11.7356 2.18383 11.2669 1.71517C10.7982 1.2465 10.1628 0.98285 9.5 0.982056ZM2.5 1.98206H9.5C9.89782 1.98206 10.2794 2.14009 10.5607 2.4214C10.842 2.7027 11 3.08423 11 3.48206V3.98206H1V3.48206C1 3.08423 1.15804 2.7027 1.43934 2.4214C1.72064 2.14009 2.10218 1.98206 2.5 1.98206ZM9.5 10.9821H2.5C2.10218 10.9821 1.72064 10.824 1.43934 10.5427C1.15804 10.2614 1 9.87988 1 9.48206V4.98206H11V9.48206C11 9.87988 10.842 10.2614 10.5607 10.5427C10.2794 10.824 9.89782 10.9821 9.5 10.9821ZM9.5 6.98206C9.5 7.11466 9.44732 7.24184 9.35355 7.33561C9.25979 7.42938 9.13261 7.48206 9 7.48206H3C2.86739 7.48206 2.74021 7.42938 2.64645 7.33561C2.55268 7.24184 2.5 7.11466 2.5 6.98206C2.5 6.84945 2.55268 6.72227 2.64645 6.6285C2.74021 6.53473 2.86739 6.48206 3 6.48206H9C9.13261 6.48206 9.25979 6.53473 9.35355 6.6285C9.44732 6.72227 9.5 6.84945 9.5 6.98206ZM7.5 8.98206C7.5 9.11466 7.44732 9.24184 7.35355 9.33561C7.25979 9.42938 7.13261 9.48206 7 9.48206H3C2.86739 9.48206 2.74021 9.42938 2.64645 9.33561C2.55268 9.24184 2.5 9.11466 2.5 8.98206C2.5 8.84945 2.55268 8.72227 2.64645 8.6285C2.74021 8.53473 2.86739 8.48206 3 8.48206H7C7.13261 8.48206 7.25979 8.53473 7.35355 8.6285C7.44732 8.72227 7.5 8.84945 7.5 8.98206ZM1.5 2.98206C1.5 2.88317 1.52932 2.7865 1.58427 2.70427C1.63921 2.62205 1.7173 2.55796 1.80866 2.52012C1.90002 2.48227 2.00055 2.47237 2.09755 2.49166C2.19454 2.51096 2.28363 2.55858 2.35355 2.6285C2.42348 2.69843 2.4711 2.78752 2.49039 2.88451C2.50969 2.9815 2.49978 3.08203 2.46194 3.1734C2.4241 3.26476 2.36001 3.34285 2.27779 3.39779C2.19556 3.45273 2.09889 3.48206 2 3.48206C1.86739 3.48206 1.74021 3.42938 1.64645 3.33561C1.55268 3.24184 1.5 3.11466 1.5 2.98206ZM3 2.98206C3 2.88317 3.02932 2.7865 3.08427 2.70427C3.13921 2.62205 3.2173 2.55796 3.30866 2.52012C3.40002 2.48227 3.50055 2.47237 3.59755 2.49166C3.69454 2.51096 3.78363 2.55858 3.85355 2.6285C3.92348 2.69843 3.9711 2.78752 3.99039 2.88451C4.00969 2.9815 3.99978 3.08203 3.96194 3.1734C3.9241 3.26476 3.86001 3.34285 3.77779 3.39779C3.69556 3.45273 3.59889 3.48206 3.5 3.48206C3.36739 3.48206 3.24021 3.42938 3.14645 3.33561C3.05268 3.24184 3 3.11466 3 2.98206ZM4.5 2.98206C4.5 2.88317 4.52932 2.7865 4.58427 2.70427C4.63921 2.62205 4.7173 2.55796 4.80866 2.52012C4.90002 2.48227 5.00055 2.47237 5.09755 2.49166C5.19454 2.51096 5.28363 2.55858 5.35355 2.6285C5.42348 2.69843 5.4711 2.78752 5.49039 2.88451C5.50969 2.9815 5.49978 3.08203 5.46194 3.1734C5.4241 3.26476 5.36001 3.34285 5.27779 3.39779C5.19556 3.45273 5.09889 3.48206 5 3.48206C4.86739 3.48206 4.74021 3.42938 4.64645 3.33561C4.55268 3.24184 4.5 3.11466 4.5 2.98206Z" fill="#404040"/>
</g>
<defs>
<clipPath id="clip0_269_2187">
<rect width="12" height="12" fill="white" transform="translate(0 0.482056)"/>
</clipPath>
</defs>
</svg>
