<svg width="17" height="17" viewBox="0 0 17 17" fill="none" xmlns="http://www.w3.org/2000/svg">
<g clip-path="url(#clip0_666_4216)">
<path d="M7.83791 2.2006L7.83325 12.4926C7.83325 12.6694 7.90349 12.839 8.02851 12.964C8.15353 13.089 8.3231 13.1593 8.49991 13.1593C8.67672 13.1593 8.84629 13.089 8.97132 12.964C9.09634 12.839 9.16658 12.6694 9.16658 12.4926L9.17125 2.21193L11.1126 4.15393C11.2376 4.27891 11.4071 4.34912 11.5839 4.34912C11.7607 4.34912 11.9302 4.27891 12.0552 4.15393C12.1802 4.02891 12.2504 3.85937 12.2504 3.6826C12.2504 3.50582 12.1802 3.33628 12.0552 3.21126L9.91458 1.06793C9.72885 0.882076 9.50831 0.734643 9.26558 0.634053C9.02284 0.533463 8.76267 0.481689 8.49991 0.481689C8.23716 0.481689 7.97699 0.533463 7.73425 0.634053C7.49152 0.734643 7.27098 0.882076 7.08525 1.06793L4.94458 3.20926C4.8196 3.33428 4.74939 3.50382 4.74939 3.6806C4.74939 3.85737 4.8196 4.02691 4.94458 4.15193C5.0696 4.27691 5.23914 4.34712 5.41591 4.34712C5.59269 4.34712 5.76223 4.27691 5.88725 4.15193L7.83791 2.2006Z" fill="white"/>
<path d="M15.1667 11.8149V14.4815C15.1667 14.6583 15.0964 14.8279 14.9714 14.9529C14.8464 15.0779 14.6768 15.1482 14.5 15.1482H2.5C2.32319 15.1482 2.15362 15.0779 2.0286 14.9529C1.90357 14.8279 1.83333 14.6583 1.83333 14.4815V11.8149C1.83333 11.638 1.7631 11.4685 1.63807 11.3435C1.51305 11.2184 1.34348 11.1482 1.16667 11.1482C0.989856 11.1482 0.820286 11.2184 0.695262 11.3435C0.570238 11.4685 0.5 11.638 0.5 11.8149L0.5 14.4815C0.5 15.012 0.710714 15.5207 1.08579 15.8957C1.46086 16.2708 1.96957 16.4815 2.5 16.4815H14.5C15.0304 16.4815 15.5391 16.2708 15.9142 15.8957C16.2893 15.5207 16.5 15.012 16.5 14.4815V11.8149C16.5 11.638 16.4298 11.4685 16.3047 11.3435C16.1797 11.2184 16.0101 11.1482 15.8333 11.1482C15.6565 11.1482 15.487 11.2184 15.3619 11.3435C15.2369 11.4685 15.1667 11.638 15.1667 11.8149Z" fill="white"/>
</g>
<defs>
<clipPath id="clip0_666_4216">
<rect width="16" height="16" fill="white" transform="translate(0.5 0.481934)"/>
</clipPath>
</defs>
</svg>
