<svg width="24" height="25" viewBox="0 0 24 25" fill="none" xmlns="http://www.w3.org/2000/svg">
<path d="M21.5874 21.2764L17.3508 17.0398C18.558 15.6486 19.2955 13.839 19.2955 11.8548C19.2955 7.48055 15.7469 3.93203 11.3727 3.93203C6.99853 3.93203 3.45001 7.48055 3.45001 11.8548C3.45001 16.229 6.99853 19.7775 11.3727 19.7775C13.3607 19.7775 15.1704 19.0402 16.5579 17.8329L20.7944 22.0695C20.8958 22.1709 21.0361 22.232 21.1909 22.232C21.4988 22.232 21.75 21.9808 21.75 21.6729C21.75 21.5182 21.6889 21.3779 21.5874 21.2764ZM11.3727 18.6593C7.61421 18.6593 4.56819 15.6133 4.56819 11.8548C4.56819 8.09624 7.61421 5.05021 11.3727 5.05021C15.1313 5.05021 18.1773 8.09624 18.1773 11.8548C18.1773 15.6133 15.1313 18.6593 11.3727 18.6593Z" fill="#052744" stroke="#052744" stroke-width="0.3"/>
</svg>
