<svg width="16" height="17" viewBox="0 0 16 17" fill="none" xmlns="http://www.w3.org/2000/svg">
<g clip-path="url(#clip0_762_4376)">
<path d="M12.6666 16.4818H11.3333C11.1565 16.4818 10.9869 16.4115 10.8619 16.2865C10.7369 16.1615 10.6666 15.9919 10.6666 15.8151C10.6666 15.6383 10.7369 15.4687 10.8619 15.3437C10.9869 15.2187 11.1565 15.1484 11.3333 15.1484H12.6666C13.1971 15.1484 13.7058 14.9377 14.0808 14.5626C14.4559 14.1876 14.6666 13.6789 14.6666 13.1484V11.8151C14.6666 11.6383 14.7369 11.4687 14.8619 11.3437C14.9869 11.2187 15.1565 11.1484 15.3333 11.1484C15.5101 11.1484 15.6797 11.2187 15.8047 11.3437C15.9297 11.4687 15.9999 11.6383 15.9999 11.8151V13.1484C15.9989 14.0322 15.6474 14.8794 15.0225 15.5043C14.3976 16.1292 13.5504 16.4807 12.6666 16.4818V16.4818Z" fill="white"/>
<path d="M0.666667 5.81527C0.489856 5.81527 0.320286 5.74503 0.195262 5.62C0.0702379 5.49498 0 5.32541 0 5.1486V3.81527C0.00105857 2.93154 0.352588 2.08431 0.97748 1.45941C1.60237 0.834522 2.4496 0.482992 3.33333 0.481934L4.66667 0.481934C4.84348 0.481934 5.01305 0.552172 5.13807 0.677196C5.2631 0.80222 5.33333 0.971789 5.33333 1.1486C5.33333 1.32541 5.2631 1.49498 5.13807 1.62C5.01305 1.74503 4.84348 1.81527 4.66667 1.81527H3.33333C2.8029 1.81527 2.29419 2.02598 1.91912 2.40105C1.54405 2.77613 1.33333 3.28483 1.33333 3.81527V5.1486C1.33333 5.32541 1.2631 5.49498 1.13807 5.62C1.01305 5.74503 0.843478 5.81527 0.666667 5.81527V5.81527Z" fill="white"/>
<path d="M4.66667 16.4818H3.33333C2.4496 16.4807 1.60237 16.1292 0.97748 15.5043C0.352588 14.8794 0.00105857 14.0322 0 13.1484L0 11.8151C0 11.6383 0.0702379 11.4687 0.195262 11.3437C0.320286 11.2187 0.489856 11.1484 0.666667 11.1484C0.843478 11.1484 1.01305 11.2187 1.13807 11.3437C1.2631 11.4687 1.33333 11.6383 1.33333 11.8151V13.1484C1.33333 13.6789 1.54405 14.1876 1.91912 14.5626C2.29419 14.9377 2.8029 15.1484 3.33333 15.1484H4.66667C4.84348 15.1484 5.01305 15.2187 5.13807 15.3437C5.2631 15.4687 5.33333 15.6383 5.33333 15.8151C5.33333 15.9919 5.2631 16.1615 5.13807 16.2865C5.01305 16.4115 4.84348 16.4818 4.66667 16.4818Z" fill="white"/>
<path d="M15.3333 5.81527C15.1565 5.81527 14.9869 5.74503 14.8619 5.62C14.7369 5.49498 14.6666 5.32541 14.6666 5.1486V3.81527C14.6666 3.28483 14.4559 2.77613 14.0808 2.40105C13.7058 2.02598 13.1971 1.81527 12.6666 1.81527H11.3333C11.1565 1.81527 10.9869 1.74503 10.8619 1.62C10.7369 1.49498 10.6666 1.32541 10.6666 1.1486C10.6666 0.971789 10.7369 0.80222 10.8619 0.677196C10.9869 0.552172 11.1565 0.481934 11.3333 0.481934L12.6666 0.481934C13.5504 0.482992 14.3976 0.834522 15.0225 1.45941C15.6474 2.08431 15.9989 2.93154 15.9999 3.81527V5.1486C15.9999 5.32541 15.9297 5.49498 15.8047 5.62C15.6797 5.74503 15.5101 5.81527 15.3333 5.81527Z" fill="white"/>
</g>
<defs>
<clipPath id="clip0_762_4376">
<rect width="16" height="16" fill="white" transform="translate(0 0.481934)"/>
</clipPath>
</defs>
</svg>
