<svg width="16" height="16" viewBox="0 0 16 16" fill="none" xmlns="http://www.w3.org/2000/svg">
<path d="M15.8049 0.195557C15.6799 0.0705765 15.5103 0.000366211 15.3336 0.000366211C15.1568 0.000366211 14.9872 0.0705765 14.8622 0.195557L8.00022 7.05756L1.13822 0.195557C1.01321 0.0705765 0.843667 0.000366211 0.666891 0.000366211C0.490114 0.000366211 0.320576 0.0705765 0.195557 0.195557C0.0705765 0.320576 0.000366211 0.490114 0.000366211 0.666891C0.000366211 0.843667 0.0705765 1.01321 0.195557 1.13822L7.05756 8.00022L0.195557 14.8622C0.0705765 14.9872 0.000366211 15.1568 0.000366211 15.3336C0.000366211 15.5103 0.0705765 15.6799 0.195557 15.8049C0.320576 15.9299 0.490114 16.0001 0.666891 16.0001C0.843667 16.0001 1.01321 15.9299 1.13822 15.8049L8.00022 8.94289L14.8622 15.8049C14.9872 15.9299 15.1568 16.0001 15.3336 16.0001C15.5103 16.0001 15.6799 15.9299 15.8049 15.8049C15.9299 15.6799 16.0001 15.5103 16.0001 15.3336C16.0001 15.1568 15.9299 14.9872 15.8049 14.8622L8.94289 8.00022L15.8049 1.13822C15.9299 1.01321 16.0001 0.843667 16.0001 0.666891C16.0001 0.490114 15.9299 0.320576 15.8049 0.195557Z" fill="#404040"/>
</svg>
