<svg width="16" height="17" viewBox="0 0 16 17" fill="none" xmlns="http://www.w3.org/2000/svg">
<g clip-path="url(#clip0_666_4219)">
<path d="M12.6667 3.1486H12.328L10.872 1.2606C10.6844 1.01914 10.4442 0.823545 10.1698 0.688636C9.89534 0.553728 9.5938 0.483042 9.288 0.481934L6.712 0.481934C6.4062 0.483042 6.10466 0.553728 5.83022 0.688636C5.55579 0.823545 5.31565 1.01914 5.128 1.2606L3.672 3.1486H3.33333C2.4496 3.14966 1.60237 3.50119 0.97748 4.12608C0.352588 4.75097 0.00105857 5.5982 0 6.48193L0 13.1486C0.00105857 14.0323 0.352588 14.8796 0.97748 15.5045C1.60237 16.1293 2.4496 16.4809 3.33333 16.4819H12.6667C13.5504 16.4809 14.3976 16.1293 15.0225 15.5045C15.6474 14.8796 15.9989 14.0323 16 13.1486V6.48193C15.9989 5.5982 15.6474 4.75097 15.0225 4.12608C14.3976 3.50119 13.5504 3.14966 12.6667 3.1486ZM6.184 2.07527C6.24645 1.99464 6.32646 1.92931 6.41796 1.88426C6.50945 1.8392 6.61001 1.81561 6.712 1.81527H9.288C9.38997 1.81571 9.4905 1.83934 9.58198 1.88439C9.67346 1.92944 9.75348 1.99471 9.816 2.07527L10.644 3.1486H5.356L6.184 2.07527ZM14.6667 13.1486C14.6667 13.679 14.456 14.1877 14.0809 14.5628C13.7058 14.9379 13.1971 15.1486 12.6667 15.1486H3.33333C2.8029 15.1486 2.29419 14.9379 1.91912 14.5628C1.54405 14.1877 1.33333 13.679 1.33333 13.1486V6.48193C1.33333 5.9515 1.54405 5.44279 1.91912 5.06772C2.29419 4.69265 2.8029 4.48193 3.33333 4.48193H12.6667C13.1971 4.48193 13.7058 4.69265 14.0809 5.06772C14.456 5.44279 14.6667 5.9515 14.6667 6.48193V13.1486Z" fill="white"/>
<path d="M8 5.81519C7.20888 5.81519 6.43552 6.04978 5.77772 6.48931C5.11992 6.92883 4.60723 7.55355 4.30448 8.28445C4.00173 9.01536 3.92252 9.81962 4.07686 10.5955C4.2312 11.3715 4.61216 12.0842 5.17157 12.6436C5.73099 13.203 6.44372 13.584 7.21964 13.7383C7.99557 13.8927 8.79983 13.8135 9.53074 13.5107C10.2616 13.208 10.8864 12.6953 11.3259 12.0375C11.7654 11.3797 12 10.6063 12 9.81519C11.9989 8.75464 11.5772 7.73784 10.8273 6.98793C10.0773 6.23801 9.06054 5.81624 8 5.81519ZM8 12.4819C7.47259 12.4819 6.95701 12.3255 6.51848 12.0324C6.07995 11.7394 5.73816 11.3229 5.53632 10.8357C5.33449 10.3484 5.28168 9.81223 5.38457 9.29495C5.48747 8.77766 5.74144 8.30251 6.11438 7.92957C6.48732 7.55663 6.96248 7.30265 7.47976 7.19976C7.99704 7.09686 8.53322 7.14967 9.02049 7.35151C9.50776 7.55334 9.92424 7.89513 10.2173 8.33367C10.5103 8.7722 10.6667 9.28777 10.6667 9.81519C10.6667 10.5224 10.3857 11.2007 9.88562 11.7008C9.38552 12.2009 8.70725 12.4819 8 12.4819Z" fill="white"/>
</g>
<defs>
<clipPath id="clip0_666_4219">
<rect width="16" height="16" fill="white" transform="translate(0 0.481934)"/>
</clipPath>
</defs>
</svg>
