<svg width="23" height="25" viewBox="0 0 23 25" fill="none" xmlns="http://www.w3.org/2000/svg">
<path id="Vector" d="M22.5549 14.144L20.6549 7.30799C20.098 5.30532 18.8876 3.54628 17.2162 2.31046C15.5448 1.07464 13.5083 0.432977 11.4304 0.487457C9.35241 0.541937 7.3523 1.28944 5.74795 2.61114C4.14361 3.93284 3.02709 5.75289 2.57589 7.78199L1.10489 14.397C0.942406 15.1279 0.946162 15.886 1.11588 16.6153C1.2856 17.3446 1.61695 18.0265 2.08547 18.6105C2.55399 19.1946 3.14771 19.666 3.8228 19.9899C4.49789 20.3139 5.23711 20.482 5.98589 20.482H7.09989C7.32941 21.6123 7.94262 22.6285 8.83563 23.3584C9.72864 24.0883 10.8465 24.487 11.9999 24.487C13.1532 24.487 14.2711 24.0883 15.1641 23.3584C16.0572 22.6285 16.6704 21.6123 16.8999 20.482H17.7379C18.5087 20.482 19.2691 20.3039 19.9596 19.9614C20.6502 19.619 21.2522 19.1215 21.7187 18.5079C22.1852 17.8942 22.5035 17.181 22.6487 16.424C22.7939 15.667 22.7622 14.8867 22.5559 14.144H22.5549ZM11.9999 22.482C11.3816 22.4794 10.7793 22.2859 10.2752 21.9279C9.77112 21.5699 9.38997 21.0649 9.18389 20.482H14.8159C14.6098 21.0649 14.2287 21.5699 13.7246 21.9279C13.2205 22.2859 12.6182 22.4794 11.9999 22.482ZM20.1259 17.297C19.8472 17.6667 19.4862 17.9662 19.0715 18.172C18.6568 18.3777 18.1998 18.4838 17.7369 18.482H5.98589C5.53667 18.4819 5.09321 18.381 4.68823 18.1866C4.28325 17.9922 3.9271 17.7093 3.64605 17.3589C3.36501 17.0084 3.16625 16.5994 3.06445 16.1618C2.96265 15.7243 2.96041 15.2695 3.05789 14.831L4.52789 8.21499C4.88224 6.6212 5.7592 5.19159 7.01935 4.15344C8.2795 3.11528 9.85051 2.52816 11.4827 2.4854C13.1148 2.44265 14.7144 2.94671 16.0272 3.91746C17.34 4.88821 18.2906 6.26994 18.7279 7.84299L20.6279 14.679C20.7534 15.1244 20.7734 15.5929 20.6863 16.0473C20.5991 16.5018 20.4073 16.9296 20.1259 17.297Z" fill="#052744"/>
</svg>
