<svg xmlns="http://www.w3.org/2000/svg" width="21" height="21" viewBox="0 0 21 21" fill="none">
  <g clip-path="url(#clip0_144_662)">
    <path d="M16.3333 2.14872H15.5V1.31539C15.5 1.09438 15.4122 0.882414 15.2559 0.726133C15.0996 0.569853 14.8877 0.482056 14.6667 0.482056C14.4457 0.482056 14.2337 0.569853 14.0774 0.726133C13.9211 0.882414 13.8333 1.09438 13.8333 1.31539V2.14872H7.16667V1.31539C7.16667 1.09438 7.07887 0.882414 6.92259 0.726133C6.76631 0.569853 6.55435 0.482056 6.33333 0.482056C6.11232 0.482056 5.90036 0.569853 5.74408 0.726133C5.5878 0.882414 5.5 1.09438 5.5 1.31539V2.14872H4.66667C3.562 2.15005 2.50296 2.58946 1.72185 3.37057C0.940735 4.15169 0.501323 5.21073 0.5 6.31539L0.5 16.3154C0.501323 17.4201 0.940735 18.4791 1.72185 19.2602C2.50296 20.0413 3.562 20.4807 4.66667 20.4821H16.3333C17.438 20.4807 18.497 20.0413 19.2782 19.2602C20.0593 18.4791 20.4987 17.4201 20.5 16.3154V6.31539C20.4987 5.21073 20.0593 4.15169 19.2782 3.37057C18.497 2.58946 17.438 2.15005 16.3333 2.14872ZM2.16667 6.31539C2.16667 5.65235 2.43006 5.01646 2.8989 4.54762C3.36774 4.07878 4.00363 3.81539 4.66667 3.81539H16.3333C16.9964 3.81539 17.6323 4.07878 18.1011 4.54762C18.5699 5.01646 18.8333 5.65235 18.8333 6.31539V7.14872H2.16667V6.31539ZM16.3333 18.8154H4.66667C4.00363 18.8154 3.36774 18.552 2.8989 18.0832C2.43006 17.6143 2.16667 16.9784 2.16667 16.3154V8.81539H18.8333V16.3154C18.8333 16.9784 18.5699 17.6143 18.1011 18.0832C17.6323 18.552 16.9964 18.8154 16.3333 18.8154Z" fill="#404040"/>
    <path d="M10.5 14.2321C11.1904 14.2321 11.75 13.6724 11.75 12.9821C11.75 12.2917 11.1904 11.7321 10.5 11.7321C9.80964 11.7321 9.25 12.2917 9.25 12.9821C9.25 13.6724 9.80964 14.2321 10.5 14.2321Z" fill="#404040"/>
    <path d="M6.33319 14.2321C7.02355 14.2321 7.58319 13.6724 7.58319 12.9821C7.58319 12.2917 7.02355 11.7321 6.33319 11.7321C5.64283 11.7321 5.08319 12.2917 5.08319 12.9821C5.08319 13.6724 5.64283 14.2321 6.33319 14.2321Z" fill="#404040"/>
    <path d="M14.6668 14.2321C15.3572 14.2321 15.9168 13.6724 15.9168 12.9821C15.9168 12.2917 15.3572 11.7321 14.6668 11.7321C13.9765 11.7321 13.4168 12.2917 13.4168 12.9821C13.4168 13.6724 13.9765 14.2321 14.6668 14.2321Z" fill="#404040"/>
  </g>
  <defs>
    <clipPath id="clip0_144_662">
      <rect width="20" height="20" fill="white" transform="translate(0.5 0.482056)"/>
    </clipPath>
  </defs>
</svg>