<svg width="24" height="25" viewBox="0 0 24 25" fill="none" xmlns="http://www.w3.org/2000/svg">
<circle cx="12" cy="12.7411" r="11.4" fill="white" stroke="#D9D9D9" stroke-width="1.2"/>
<path d="M6 9.92475C6 9.45135 6.38376 9.06758 6.85714 9.06758H8.65012C8.87439 9.06758 9.08973 8.97968 9.24994 8.82274L10.2501 7.84299C10.4103 7.68604 10.6256 7.59814 10.8499 7.59814H13.1501C13.3744 7.59814 13.5897 7.68604 13.7499 7.84299L14.7501 8.82274C14.9103 8.97968 15.1256 9.06758 15.3499 9.06758H17.1429C17.6162 9.06758 18 9.45135 18 9.92475V17.027C18 17.5004 17.6162 17.8842 17.1429 17.8842H6.85714C6.38376 17.8842 6 17.5004 6 17.027V9.92475Z" stroke="#DDDDDD" stroke-width="1.2"/>
<path d="M14.5714 13.5989C14.5714 15.0191 13.4201 16.1704 11.9999 16.1704C10.5798 16.1704 9.42852 15.0191 9.42852 13.5989C9.42852 12.1787 10.5798 11.0274 11.9999 11.0274C13.4201 11.0274 14.5714 12.1787 14.5714 13.5989Z" stroke="#DDDDDD" stroke-width="1.2"/>
</svg>
