<svg width="12" height="13" viewBox="0 0 12 13" fill="none" xmlns="http://www.w3.org/2000/svg">
<g id="fi-rr-calendar" clip-path="url(#clip0_41_2890)">
<path id="Vector" d="M9.5 1.48193H9V0.981934C9 0.849325 8.94732 0.722148 8.85355 0.62838C8.75979 0.534612 8.63261 0.481934 8.5 0.481934C8.36739 0.481934 8.24021 0.534612 8.14645 0.62838C8.05268 0.722148 8 0.849325 8 0.981934V1.48193H4V0.981934C4 0.849325 3.94732 0.722148 3.85355 0.62838C3.75979 0.534612 3.63261 0.481934 3.5 0.481934C3.36739 0.481934 3.24021 0.534612 3.14645 0.62838C3.05268 0.722148 3 0.849325 3 0.981934V1.48193H2.5C1.8372 1.48273 1.20178 1.74637 0.73311 2.21504C0.264441 2.68371 0.000793929 3.31914 0 3.98193L0 9.98193C0.000793929 10.6447 0.264441 11.2802 0.73311 11.7488C1.20178 12.2175 1.8372 12.4811 2.5 12.4819H9.5C10.1628 12.4811 10.7982 12.2175 11.2669 11.7488C11.7356 11.2802 11.9992 10.6447 12 9.98193V3.98193C11.9992 3.31914 11.7356 2.68371 11.2669 2.21504C10.7982 1.74637 10.1628 1.48273 9.5 1.48193ZM1 3.98193C1 3.58411 1.15804 3.20258 1.43934 2.92127C1.72064 2.63997 2.10218 2.48193 2.5 2.48193H9.5C9.89782 2.48193 10.2794 2.63997 10.5607 2.92127C10.842 3.20258 11 3.58411 11 3.98193V4.48193H1V3.98193ZM9.5 11.4819H2.5C2.10218 11.4819 1.72064 11.3239 1.43934 11.0426C1.15804 10.7613 1 10.3798 1 9.98193V5.48193H11V9.98193C11 10.3798 10.842 10.7613 10.5607 11.0426C10.2794 11.3239 9.89782 11.4819 9.5 11.4819Z" fill="#008CD6"/>
</g>
<defs>
<clipPath id="clip0_41_2890">
<rect width="12" height="12" fill="white" transform="translate(0 0.481934)"/>
</clipPath>
</defs>
</svg>
