<svg xmlns="http://www.w3.org/2000/svg" width="12" height="13" viewBox="0 0 12 13" fill="none">
  <g clip-path="url(#clip0_144_1077)">
    <path d="M9.5 0.98209H2.5C1.8372 0.982884 1.20178 1.24653 0.73311 1.7152C0.264441 2.18387 0.000793929 2.81929 0 3.48209L0 9.48209C0.000793929 10.1449 0.264441 10.7803 0.73311 11.249C1.20178 11.7176 1.8372 11.9813 2.5 11.9821H9.5C10.1628 11.9813 10.7982 11.7176 11.2669 11.249C11.7356 10.7803 11.9992 10.1449 12 9.48209V3.48209C11.9992 2.81929 11.7356 2.18387 11.2669 1.7152C10.7982 1.24653 10.1628 0.982884 9.5 0.98209ZM2.5 1.98209H9.5C9.89782 1.98209 10.2794 2.14013 10.5607 2.42143C10.842 2.70273 11 3.08427 11 3.48209V3.98209H1V3.48209C1 3.08427 1.15804 2.70273 1.43934 2.42143C1.72064 2.14013 2.10218 1.98209 2.5 1.98209ZM9.5 10.9821H2.5C2.10218 10.9821 1.72064 10.8241 1.43934 10.5428C1.15804 10.2614 1 9.87991 1 9.48209V4.98209H11V9.48209C11 9.87991 10.842 10.2614 10.5607 10.5428C10.2794 10.8241 9.89782 10.9821 9.5 10.9821ZM9.5 6.98209C9.5 7.1147 9.44732 7.24188 9.35355 7.33564C9.25979 7.42941 9.13261 7.48209 9 7.48209H3C2.86739 7.48209 2.74021 7.42941 2.64645 7.33564C2.55268 7.24188 2.5 7.1147 2.5 6.98209C2.5 6.84948 2.55268 6.7223 2.64645 6.62854C2.74021 6.53477 2.86739 6.48209 3 6.48209H9C9.13261 6.48209 9.25979 6.53477 9.35355 6.62854C9.44732 6.7223 9.5 6.84948 9.5 6.98209ZM7.5 8.98209C7.5 9.1147 7.44732 9.24188 7.35355 9.33564C7.25979 9.42941 7.13261 9.48209 7 9.48209H3C2.86739 9.48209 2.74021 9.42941 2.64645 9.33564C2.55268 9.24188 2.5 9.1147 2.5 8.98209C2.5 8.84948 2.55268 8.7223 2.64645 8.62854C2.74021 8.53477 2.86739 8.48209 3 8.48209H7C7.13261 8.48209 7.25979 8.53477 7.35355 8.62854C7.44732 8.7223 7.5 8.84948 7.5 8.98209ZM1.5 2.98209C1.5 2.8832 1.52932 2.78653 1.58427 2.7043C1.63921 2.62208 1.7173 2.55799 1.80866 2.52015C1.90002 2.48231 2.00055 2.4724 2.09755 2.4917C2.19454 2.51099 2.28363 2.55861 2.35355 2.62854C2.42348 2.69846 2.4711 2.78755 2.49039 2.88454C2.50969 2.98154 2.49978 3.08207 2.46194 3.17343C2.4241 3.26479 2.36001 3.34288 2.27779 3.39782C2.19556 3.45277 2.09889 3.48209 2 3.48209C1.86739 3.48209 1.74021 3.42941 1.64645 3.33564C1.55268 3.24188 1.5 3.1147 1.5 2.98209ZM3 2.98209C3 2.8832 3.02932 2.78653 3.08427 2.7043C3.13921 2.62208 3.2173 2.55799 3.30866 2.52015C3.40002 2.48231 3.50055 2.4724 3.59755 2.4917C3.69454 2.51099 3.78363 2.55861 3.85355 2.62854C3.92348 2.69846 3.9711 2.78755 3.99039 2.88454C4.00969 2.98154 3.99978 3.08207 3.96194 3.17343C3.9241 3.26479 3.86001 3.34288 3.77779 3.39782C3.69556 3.45277 3.59889 3.48209 3.5 3.48209C3.36739 3.48209 3.24021 3.42941 3.14645 3.33564C3.05268 3.24188 3 3.1147 3 2.98209ZM4.5 2.98209C4.5 2.8832 4.52932 2.78653 4.58427 2.7043C4.63921 2.62208 4.7173 2.55799 4.80866 2.52015C4.90002 2.48231 5.00055 2.4724 5.09755 2.4917C5.19454 2.51099 5.28363 2.55861 5.35355 2.62854C5.42348 2.69846 5.4711 2.78755 5.49039 2.88454C5.50969 2.98154 5.49978 3.08207 5.46194 3.17343C5.4241 3.26479 5.36001 3.34288 5.27779 3.39782C5.19556 3.45277 5.09889 3.48209 5 3.48209C4.86739 3.48209 4.74021 3.42941 4.64645 3.33564C4.55268 3.24188 4.5 3.1147 4.5 2.98209Z" fill="#404040"/>
  </g>
  <defs>
    <clipPath id="clip0_144_1077">
      <rect width="12" height="12" fill="white" transform="translate(0 0.482056)"/>
    </clipPath>
  </defs>
</svg>