<svg width="57" height="57" viewBox="0 0 57 57" fill="none" xmlns="http://www.w3.org/2000/svg">
<path id="face id" fill-rule="evenodd" clip-rule="evenodd" d="M2.89453 15.6416V9.24023C2.89453 5.74119 5.74125 2.89453 9.24023 2.89453H15.6416C16.4409 2.89453 17.0889 2.24655 17.0889 1.44727C17.0889 0.647985 16.4409 0 15.6416 0H9.24023C4.14519 0 0 4.14514 0 9.24023V15.6416C0 16.4409 0.647985 17.0889 1.44727 17.0889C2.24655 17.0889 2.89453 16.4409 2.89453 15.6416ZM15.6416 54.1054C16.4409 54.1054 17.0889 54.7534 17.0889 55.5527C17.0889 56.352 16.4409 56.9999 15.6416 56.9999H9.24023C4.14519 56.9999 0 52.8548 0 47.7597V41.3583C0 40.5591 0.647985 39.9111 1.44727 39.9111C2.24655 39.9111 2.89453 40.5591 2.89453 41.3583V47.7597C2.89453 51.2587 5.74125 54.1054 9.24023 54.1054H15.6416ZM57 41.3583V47.7597C57 52.8548 52.8548 56.9999 47.7598 56.9999H41.3584C40.5591 56.9999 39.9111 56.352 39.9111 55.5527C39.9111 54.7534 40.5591 54.1054 41.3584 54.1054H47.7598C51.2588 54.1054 54.1055 51.2587 54.1055 47.7597V41.3583C54.1055 40.5591 54.7535 39.9111 55.5527 39.9111C56.352 39.9111 57 40.5591 57 41.3583ZM57 9.24023V15.6416C57 16.4409 56.352 17.0889 55.5527 17.0889C54.7535 17.0889 54.1055 16.4409 54.1055 15.6416V9.24023C54.1055 5.74119 51.2588 2.89453 47.7598 2.89453H41.3584C40.5591 2.89453 39.9111 2.24655 39.9111 1.44727C39.9111 0.647985 40.5591 0 41.3584 0H47.7598C52.8548 0 57 4.14514 57 9.24023ZM38.4876 42.1285C39.0974 41.5653 39.135 40.6145 38.5718 40.0047C38.0086 39.395 37.0578 39.3573 36.448 39.9204C34.2784 41.9246 31.4557 43.0283 28.4999 43.0283C25.5441 43.0283 22.7213 41.9246 20.5517 39.9204C19.9419 39.3573 18.9912 39.395 18.4279 40.0047C17.8647 40.6145 17.9024 41.5653 18.5121 42.1285C21.2388 44.6471 24.7858 46.0341 28.4999 46.0341C32.2139 46.0341 35.7609 44.6471 38.4876 42.1285ZM31.5059 21.4862V32.1737C31.5059 34.2916 29.7829 36.0145 27.665 36.0145H26.4404C25.6104 36.0145 24.9375 35.3417 24.9375 34.5116C24.9375 33.6815 25.6104 33.0087 26.4404 33.0087H27.665C28.1254 33.0087 28.5 32.6341 28.5 32.1737V21.4862C28.5 20.6562 29.1729 19.9833 30.0029 19.9833C30.833 19.9833 31.5059 20.6562 31.5059 21.4862ZM41.8594 25.6889V21.4027C41.8594 20.6188 41.2239 19.9833 40.4399 19.9833C39.656 19.9833 39.0205 20.6188 39.0205 21.4027V25.6889C39.0205 26.4728 39.656 27.1083 40.4399 27.1083C41.2239 27.1083 41.8594 26.4728 41.8594 25.6889ZM15.4746 25.6889C15.4746 26.4728 16.1101 27.1083 16.894 27.1083C17.678 27.1083 18.3135 26.4728 18.3135 25.6889V21.4027C18.3135 20.6188 17.678 19.9833 16.894 19.9833C16.1101 19.9833 15.4746 20.6188 15.4746 21.4027V25.6889Z" fill="#F2F2F2"/>
</svg>
