<svg width="56" height="58" viewBox="0 0 56 58" fill="none" xmlns="http://www.w3.org/2000/svg">
<g id="fingerprint 1" clip-path="url(#clip0_48_2542)">
<g id="Group">
<path id="Vector" d="M47.3389 11.858C46.9241 11.858 46.5116 11.706 46.1816 11.3925C41.1239 6.61404 34.6339 3.98254 27.9055 3.98254C21.1772 3.98254 14.6872 6.61404 9.6295 11.3949C8.92596 12.0575 7.83971 12.0029 7.20033 11.2785C6.56096 10.5518 6.61137 9.42367 7.31262 8.76104C13.0074 3.38167 20.3201 0.420044 27.9055 0.420044C35.491 0.420044 42.8037 3.38167 48.4985 8.76104C49.1997 9.42367 49.2501 10.5494 48.6107 11.2785C48.2716 11.6633 47.8064 11.858 47.3389 11.858Z" fill="white"/>
<path id="Vector_2" d="M50.2493 23.498C49.697 23.498 49.1516 23.2225 48.8216 22.7095C44.0503 15.347 36.2312 10.9509 27.9055 10.9509C19.5799 10.9509 11.7608 15.347 6.9895 22.7095C6.46013 23.5289 5.38992 23.7474 4.60388 23.1964C3.81554 22.6477 3.60471 21.541 4.13409 20.724C9.54471 12.3759 18.4318 7.39075 27.9055 7.39075C37.3793 7.39075 46.2664 12.3759 51.677 20.7264C52.2064 21.5434 51.9978 22.6501 51.2072 23.1987C50.9139 23.4006 50.5816 23.498 50.2493 23.498Z" fill="white"/>
<path id="Vector_3" d="M22.4766 57.4201C22.0343 57.4201 21.592 57.2443 21.2551 56.8928C20.8793 56.501 12.0724 47.1838 12.0724 38.2135C12.0724 28.9035 19.1743 21.3296 27.9055 21.3296C36.6368 21.3296 43.7386 28.9035 43.7386 38.2135C43.7386 39.1967 42.9686 39.9947 42.0199 39.9947C41.0711 39.9947 40.3011 39.1967 40.3011 38.2135C40.3011 30.8676 34.7416 24.8921 27.9055 24.8921C21.0695 24.8921 15.5099 30.8676 15.5099 38.2135C15.5099 45.7351 23.6155 54.2993 23.698 54.3848C24.3672 55.0831 24.3626 56.2112 23.6866 56.9047C23.352 57.2491 22.9143 57.4201 22.4766 57.4201Z" fill="white"/>
<path id="Vector_4" d="M33.3346 57.42C29.2004 57.42 19.6167 49.269 18.6886 40.1918C18.3609 36.9831 19.3463 33.7009 21.3217 31.4114C23.0404 29.4211 25.3619 28.3168 27.8575 28.3025H27.9056C30.3394 28.3025 32.6402 29.2929 34.3911 31.0955C36.2198 32.9789 37.2258 35.5083 37.2258 38.2158V39.3771C37.2258 42.239 39.3754 44.5665 42.02 44.5665C44.6646 44.5665 46.8165 42.239 46.8165 39.3771V38.971C46.8165 27.8798 39.0638 18.6529 29.1661 17.9689C24.0052 17.6055 19.0552 19.4533 15.235 23.1535C11.2704 26.9963 8.9971 32.4873 8.9971 38.2158C8.9971 42.9278 10.5371 47.5186 13.3329 51.1429C13.9242 51.9124 13.805 53.031 13.0625 53.6461C12.3223 54.2613 11.2406 54.1354 10.6448 53.3659C7.36544 49.1123 5.55731 43.7305 5.55731 38.2134C5.55731 31.5016 8.2294 25.063 12.8838 20.5505C17.4052 16.1663 23.2673 13.986 29.3906 14.4111C41.0873 15.221 50.2517 26.0083 50.2517 38.9686V39.3748C50.2517 44.2008 46.5575 48.1266 42.0177 48.1266C37.4779 48.1266 33.7861 44.2008 33.7861 39.3748V38.2134C33.7861 36.4606 33.1398 34.8314 31.9665 33.6201C30.8665 32.4849 29.425 31.8626 27.9056 31.8626C27.8942 31.8626 27.885 31.8626 27.8736 31.8626C25.9371 31.8721 24.6331 32.9148 23.8815 33.7864C22.5409 35.3373 21.8763 37.5935 22.1031 39.8165C22.8617 47.2218 31.0727 53.8599 33.3323 53.8599C34.2811 53.8599 35.0511 54.6579 35.0511 55.6411C35.0511 56.6244 34.2834 57.42 33.3346 57.42Z" fill="white"/>
<path id="Vector_5" d="M39.7122 53.936C33.5614 53.936 26.0516 46.146 26.0516 37.0521C26.0516 36.0689 26.8216 35.2709 27.7703 35.2709C28.7191 35.2709 29.4891 36.0689 29.4891 37.0521C29.4891 44.1011 35.2068 50.3735 39.7122 50.3735C40.6609 50.3735 41.4309 51.1715 41.4309 52.1548C41.4309 53.138 40.6609 53.936 39.7122 53.936Z" fill="white"/>
</g>
</g>
<defs>
<clipPath id="clip0_48_2542">
<rect width="55" height="57" fill="white" transform="translate(0.405579 0.420044)"/>
</clipPath>
</defs>
</svg>
