<svg width="72" height="81" viewBox="0 0 72 81" fill="none" xmlns="http://www.w3.org/2000/svg">
<path d="M36.5614 19.8814C44.6414 19.8814 52.9614 22.9214 59.8014 29.6814C64.1214 33.9614 66.9614 39.0814 68.2014 45.0014C68.8014 47.8014 69.2814 50.6814 68.5614 53.5214C67.3214 58.5614 64.0014 61.5214 59.0014 62.6014C53.4814 63.8014 47.8014 61.0814 45.4014 56.0014C44.7614 54.6414 44.4014 53.0414 44.3214 51.5214C44.1214 48.5614 42.9614 46.2414 40.4414 44.6414C35.6814 41.6014 29.0414 44.1214 27.8414 49.5614C27.4414 51.3214 27.6414 53.3214 27.9614 55.1614C29.9614 66.0014 36.5614 72.7614 46.8814 76.1614C47.3214 76.3214 47.7614 76.4014 48.1614 76.5214C49.2814 76.8814 49.8414 77.8814 49.5214 78.9614C49.2014 80.0414 48.2014 80.6814 47.0814 80.3614C36.2814 77.2814 28.5614 70.8014 24.9214 60.0014C23.8414 56.8014 23.3214 53.4814 23.6414 50.1214C24.1614 44.6814 28.3214 40.5214 33.9614 39.6014C39.8014 38.6814 45.3614 41.7614 47.4814 47.2414C47.9614 48.4414 48.1214 49.8014 48.2014 51.0814C48.4414 55.3214 51.2414 58.2814 55.6814 58.8814C59.6414 59.4014 63.7214 56.8414 64.5614 52.9614C64.9614 51.1214 64.8014 49.0814 64.4814 47.2014C62.5614 36.6014 56.2414 29.5614 46.3214 25.8414C38.1614 22.7614 29.9614 23.2414 22.2014 27.2014C14.3214 31.2414 9.08142 37.4814 7.48142 46.3614C6.68142 50.8414 7.00142 55.3614 8.04142 59.8014C8.48142 61.6814 9.12142 63.5214 9.68142 65.3614C10.0414 66.5614 9.76142 67.5214 8.88142 68.0014C7.72142 68.6414 6.40142 68.1214 6.00142 66.7214C5.20142 64.0014 4.32142 61.2814 3.80142 58.5214C2.92142 53.8814 2.80142 49.1614 3.80142 44.5214C5.72142 35.7214 10.8814 29.2414 18.4814 24.6414C23.6014 21.5214 29.2014 20.0414 36.6014 19.8414L36.5614 19.8814Z" fill="#BBBBBB"/>
<path d="M17.4406 51.7624C17.4406 60.0424 20.4406 67.1224 25.8006 73.3224C26.6406 74.2824 27.5206 75.1624 28.3606 76.0824C29.0006 76.7624 29.3206 77.5224 28.8806 78.4424C28.2806 79.7224 26.7206 80.0824 25.6806 79.0824C20.3206 73.9224 16.2806 67.9224 14.5206 60.6424C13.3206 55.7224 12.7606 50.6824 14.1606 45.6824C15.9606 39.4424 19.8806 34.8824 25.6806 32.1224C33.3606 28.4824 41.0406 28.7624 48.2806 33.2024C54.8406 37.2024 58.3606 43.2024 58.6406 50.9624C58.6806 52.2424 57.8406 53.1624 56.6806 53.1624C55.5206 53.1624 54.7206 52.4024 54.6806 51.1224C54.5206 46.6424 53.0406 42.6824 49.8406 39.4824C44.2406 33.9224 37.5206 32.3224 30.0006 34.6024C24.4406 36.3224 20.5606 40.0424 18.4006 45.4824C17.6006 47.4824 17.3606 49.5624 17.4406 51.7224V51.7624Z" fill="#BBBBBB"/>
<path d="M35.9207 10.2028C45.7607 10.4828 54.7207 13.1628 62.6807 19.0028C66.0807 21.5228 69.0007 24.5628 71.4807 28.0028C72.2407 29.0828 72.1607 30.2028 71.2007 30.9228C70.2807 31.6428 69.0807 31.4828 68.2807 30.4028C66.4007 27.8028 64.2407 25.4428 61.7607 23.4028C56.6007 19.0828 50.6807 16.4028 44.1207 15.1628C34.8007 13.4428 25.8407 14.4828 17.3607 18.7228C11.9207 21.4428 7.44073 25.3228 3.84073 30.2428C3.52073 30.6428 3.12073 31.0828 2.68073 31.2828C1.92073 31.6428 0.960733 31.3228 0.440733 30.6828C-0.119267 30.0028 -0.199267 29.0828 0.440733 28.2828C1.48073 26.8828 2.52073 25.4828 3.68073 24.2428C10.0407 17.2828 17.9207 13.0028 27.1607 11.2828C30.0407 10.7628 33.0007 10.5228 35.9607 10.2028H35.9207Z" fill="#BBBBBB"/>
<path d="M36.0401 0.482056C44.5601 0.602056 52.5201 2.84206 60.0401 6.68206C61.1201 7.24206 61.5201 8.40206 61.0001 9.40206C60.4801 10.4421 59.2801 10.8421 58.1601 10.2421C54.0001 8.12206 49.6801 6.44206 45.0801 5.52206C40.6401 4.64206 36.2001 4.48206 31.7201 4.88206C25.4401 5.44206 19.5601 7.16206 14.0001 10.1621C12.7201 10.8421 11.5201 10.4821 10.9601 9.32206C10.4401 8.24206 10.9601 7.20206 12.2001 6.56206C16.8401 4.20206 21.6801 2.36206 26.8001 1.52206C29.8801 1.04206 32.9601 0.842056 36.0401 0.482056Z" fill="#BBBBBB"/>
<path d="M55.6015 72.3617C45.5215 72.2417 37.3215 66.2017 34.6015 56.7217C34.1215 55.0017 34.0015 53.2017 33.8415 51.4417C33.7215 50.1617 34.5615 49.3217 35.6815 49.2417C36.8015 49.1617 37.6015 49.9217 37.8015 51.2017C38.0815 53.0017 38.1615 54.9217 38.8015 56.6417C41.0815 62.8417 45.4415 66.7217 52.0015 67.9617C54.6015 68.4417 57.1615 68.2817 59.7615 67.9217C61.0415 67.7217 62.0415 68.3617 62.2415 69.5217C62.4415 70.6017 61.6415 71.6817 60.4015 71.8417C58.8015 72.0817 57.2015 72.2017 55.6015 72.4017V72.3617Z" fill="#BBBBBB"/>
</svg>
