<svg width="74" height="76" viewBox="0 0 74 76" fill="none" xmlns="http://www.w3.org/2000/svg">
<g filter="url(#filter0_d_382_2868)">
<circle cx="38" cy="34" r="30" fill="#008CD6"/>
</g>
<g clip-path="url(#clip0_382_2868)">
<path d="M38 26C39.1046 26 40 25.1046 40 24C40 22.8954 39.1046 22 38 22C36.8954 22 36 22.8954 36 24C36 25.1046 36.8954 26 38 26Z" fill="white"/>
<path d="M38 36.0003C39.1046 36.0003 40 35.1049 40 34.0003C40 32.8957 39.1046 32.0003 38 32.0003C36.8954 32.0003 36 32.8957 36 34.0003C36 35.1049 36.8954 36.0003 38 36.0003Z" fill="white"/>
<path d="M38 45.9997C39.1046 45.9997 40 45.1043 40 43.9997C40 42.8951 39.1046 41.9997 38 41.9997C36.8954 41.9997 36 42.8951 36 43.9997C36 45.1043 36.8954 45.9997 38 45.9997Z" fill="white"/>
</g>
<defs>
<filter id="filter0_d_382_2868" x="0" y="0" width="76" height="76" filterUnits="userSpaceOnUse" color-interpolation-filters="sRGB">
<feFlood flood-opacity="0" result="BackgroundImageFix"/>
<feColorMatrix in="SourceAlpha" type="matrix" values="0 0 0 0 0 0 0 0 0 0 0 0 0 0 0 0 0 0 127 0" result="hardAlpha"/>
<feOffset dy="4"/>
<feGaussianBlur stdDeviation="4"/>
<feComposite in2="hardAlpha" operator="out"/>
<feColorMatrix type="matrix" values="0 0 0 0 0.670833 0 0 0 0 0.500565 0 0 0 0 0.128576 0 0 0 0.2 0"/>
<feBlend mode="normal" in2="BackgroundImageFix" result="effect1_dropShadow_382_2868"/>
<feBlend mode="normal" in="SourceGraphic" in2="effect1_dropShadow_382_2868" result="shape"/>
</filter>
<clipPath id="clip0_382_2868">
<rect width="24" height="24" fill="white" transform="translate(26 22)"/>
</clipPath>
</defs>
</svg>
