<svg width="12" height="13" viewBox="0 0 12 13" fill="none" xmlns="http://www.w3.org/2000/svg">
<g id="fi-rr-gift" clip-path="url(#clip0_552_5532)">
<path id="Vector" d="M10 3.98206H9.131C9.4137 3.73285 9.6381 3.42449 9.78828 3.07885C9.93846 2.73321 10.0107 2.35876 10 1.98206C10 1.84945 9.94732 1.72227 9.85355 1.6285C9.75979 1.53473 9.63261 1.48206 9.5 1.48206C9.36739 1.48206 9.24021 1.53473 9.14645 1.6285C9.05268 1.72227 9 1.84945 9 1.98206C9 3.29306 7.8145 3.74706 6.913 3.90256C7.24574 3.31258 7.44605 2.65724 7.5 1.98206C7.5 1.58423 7.34196 1.2027 7.06066 0.921395C6.77936 0.640091 6.39782 0.482056 6 0.482056C5.60218 0.482056 5.22064 0.640091 4.93934 0.921395C4.65804 1.2027 4.5 1.58423 4.5 1.98206C4.55395 2.65724 4.75426 3.31258 5.087 3.90256C4.1855 3.74706 3 3.29306 3 1.98206C3 1.84945 2.94732 1.72227 2.85355 1.6285C2.75979 1.53473 2.63261 1.48206 2.5 1.48206C2.36739 1.48206 2.24021 1.53473 2.14645 1.6285C2.05268 1.72227 2 1.84945 2 1.98206C1.98926 2.35876 2.06154 2.73321 2.21172 3.07885C2.3619 3.42449 2.5863 3.73285 2.869 3.98206H2C1.46957 3.98206 0.960859 4.19277 0.585786 4.56784C0.210714 4.94291 0 5.45162 0 5.98206L0 6.48206C0 6.74727 0.105357 7.00163 0.292893 7.18916C0.48043 7.3767 0.734784 7.48206 1 7.48206V9.98206C1.00079 10.6449 1.26444 11.2803 1.73311 11.7489C2.20178 12.2176 2.8372 12.4813 3.5 12.4821H8.5C9.1628 12.4813 9.79822 12.2176 10.2669 11.7489C10.7356 11.2803 10.9992 10.6449 11 9.98206V7.48206C11.2652 7.48206 11.5196 7.3767 11.7071 7.18916C11.8946 7.00163 12 6.74727 12 6.48206V5.98206C12 5.45162 11.7893 4.94291 11.4142 4.56784C11.0391 4.19277 10.5304 3.98206 10 3.98206ZM6 1.48206C6.13261 1.48206 6.25979 1.53473 6.35355 1.6285C6.44732 1.72227 6.5 1.84945 6.5 1.98206C6.43964 2.51347 6.26937 3.02651 6 3.48856C5.73063 3.02651 5.56036 2.51347 5.5 1.98206C5.5 1.84945 5.55268 1.72227 5.64645 1.6285C5.74021 1.53473 5.86739 1.48206 6 1.48206ZM1 5.98206C1 5.71684 1.10536 5.46249 1.29289 5.27495C1.48043 5.08741 1.73478 4.98206 2 4.98206H5.5V6.48206H1V5.98206ZM2 9.98206V7.48206H5.5V11.4821H3.5C3.10218 11.4821 2.72064 11.324 2.43934 11.0427C2.15804 10.7614 2 10.3799 2 9.98206ZM10 9.98206C10 10.3799 9.84196 10.7614 9.56066 11.0427C9.27936 11.324 8.89782 11.4821 8.5 11.4821H6.5V7.48206H10V9.98206ZM6.5 6.48206V4.98206H10C10.2652 4.98206 10.5196 5.08741 10.7071 5.27495C10.8946 5.46249 11 5.71684 11 5.98206V6.48206H6.5Z" fill="#252525"/>
</g>
<defs>
<clipPath id="clip0_552_5532">
<rect width="12" height="12" fill="white" transform="translate(0 0.482056)"/>
</clipPath>
</defs>
</svg>
