<svg width="12" height="13" viewBox="0 0 12 13" fill="none" xmlns="http://www.w3.org/2000/svg">
<g id="fi-rr-gift" clip-path="url(#clip0_46_4293)">
<path id="Vector" d="M10 3.98242H9.131C9.4137 3.73322 9.6381 3.42486 9.78828 3.07922C9.93846 2.73358 10.0107 2.35913 10 1.98242C10 1.84981 9.94732 1.72264 9.85355 1.62887C9.75979 1.5351 9.63261 1.48242 9.5 1.48242C9.36739 1.48242 9.24021 1.5351 9.14645 1.62887C9.05268 1.72264 9 1.84981 9 1.98242C9 3.29342 7.8145 3.74742 6.913 3.90292C7.24574 3.31295 7.44605 2.65761 7.5 1.98242C7.5 1.5846 7.34196 1.20307 7.06066 0.921762C6.77936 0.640457 6.39782 0.482422 6 0.482422C5.60218 0.482422 5.22064 0.640457 4.93934 0.921762C4.65804 1.20307 4.5 1.5846 4.5 1.98242C4.55395 2.65761 4.75426 3.31295 5.087 3.90292C4.1855 3.74742 3 3.29342 3 1.98242C3 1.84981 2.94732 1.72264 2.85355 1.62887C2.75979 1.5351 2.63261 1.48242 2.5 1.48242C2.36739 1.48242 2.24021 1.5351 2.14645 1.62887C2.05268 1.72264 2 1.84981 2 1.98242C1.98926 2.35913 2.06154 2.73358 2.21172 3.07922C2.3619 3.42486 2.5863 3.73322 2.869 3.98242H2C1.46957 3.98242 0.960859 4.19314 0.585786 4.56821C0.210714 4.94328 0 5.45199 0 5.98242L0 6.48242C0 6.74764 0.105357 7.00199 0.292893 7.18953C0.48043 7.37706 0.734784 7.48242 1 7.48242V9.98242C1.00079 10.6452 1.26444 11.2806 1.73311 11.7493C2.20178 12.218 2.8372 12.4816 3.5 12.4824H8.5C9.1628 12.4816 9.79822 12.218 10.2669 11.7493C10.7356 11.2806 10.9992 10.6452 11 9.98242V7.48242C11.2652 7.48242 11.5196 7.37706 11.7071 7.18953C11.8946 7.00199 12 6.74764 12 6.48242V5.98242C12 5.45199 11.7893 4.94328 11.4142 4.56821C11.0391 4.19314 10.5304 3.98242 10 3.98242ZM6 1.48242C6.13261 1.48242 6.25979 1.5351 6.35355 1.62887C6.44732 1.72264 6.5 1.84981 6.5 1.98242C6.43964 2.51384 6.26937 3.02688 6 3.48892C5.73063 3.02688 5.56036 2.51384 5.5 1.98242C5.5 1.84981 5.55268 1.72264 5.64645 1.62887C5.74021 1.5351 5.86739 1.48242 6 1.48242ZM1 5.98242C1 5.71721 1.10536 5.46285 1.29289 5.27532C1.48043 5.08778 1.73478 4.98242 2 4.98242H5.5V6.48242H1V5.98242ZM2 9.98242V7.48242H5.5V11.4824H3.5C3.10218 11.4824 2.72064 11.3244 2.43934 11.0431C2.15804 10.7618 2 10.3802 2 9.98242ZM10 9.98242C10 10.3802 9.84196 10.7618 9.56066 11.0431C9.27936 11.3244 8.89782 11.4824 8.5 11.4824H6.5V7.48242H10V9.98242ZM6.5 6.48242V4.98242H10C10.2652 4.98242 10.5196 5.08778 10.7071 5.27532C10.8946 5.46285 11 5.71721 11 5.98242V6.48242H6.5Z" fill="#008CD6"/>
</g>
<defs>
<clipPath id="clip0_46_4293">
<rect width="12" height="12" fill="white" transform="translate(0 0.482422)"/>
</clipPath>
</defs>
</svg>
