<svg width="90" height="90" viewBox="0 0 90 90" fill="none" xmlns="http://www.w3.org/2000/svg">
<path d="M70.9583 15.3153H56.125V11.6069C56.125 8.6564 54.9529 5.82671 52.8666 3.74037C50.7802 1.65403 47.9505 0.481934 45 0.481934C42.0495 0.481934 39.2198 1.65403 37.1334 3.74037C35.0471 5.82671 33.875 8.6564 33.875 11.6069V15.3153H19.0417C14.1259 15.3212 9.41319 17.2765 5.93723 20.7525C2.46127 24.2285 0.505888 28.9412 0.5 33.8569L0.5 70.9403C0.505888 75.856 2.46127 80.5687 5.93723 84.0447C9.41319 87.5207 14.1259 89.476 19.0417 89.4819H70.9583C75.8741 89.476 80.5868 87.5207 84.0628 84.0447C87.5387 80.5687 89.4941 75.856 89.5 70.9403V33.8569C89.4941 28.9412 87.5387 24.2285 84.0628 20.7525C80.5868 17.2765 75.8741 15.3212 70.9583 15.3153ZM41.2917 11.6069C41.2917 10.6234 41.6824 9.68019 42.3778 8.98475C43.0733 8.2893 44.0165 7.8986 45 7.8986C45.9835 7.8986 46.9267 8.2893 47.6222 8.98475C48.3176 9.68019 48.7083 10.6234 48.7083 11.6069V19.0236C48.7083 20.0071 48.3176 20.9503 47.6222 21.6458C46.9267 22.3412 45.9835 22.7319 45 22.7319C44.0165 22.7319 43.0733 22.3412 42.3778 21.6458C41.6824 20.9503 41.2917 20.0071 41.2917 19.0236V11.6069ZM82.0833 70.9403C82.0833 73.8908 80.9112 76.7205 78.8249 78.8068C76.7386 80.8932 73.9089 82.0653 70.9583 82.0653H19.0417C16.0911 82.0653 13.2614 80.8932 11.1751 78.8068C9.08876 76.7205 7.91667 73.8908 7.91667 70.9403V33.8569C7.91667 30.9064 9.08876 28.0767 11.1751 25.9904C13.2614 23.904 16.0911 22.7319 19.0417 22.7319H34.5573C35.3125 24.8996 36.7236 26.7786 38.5948 28.1082C40.466 29.4378 42.7045 30.1521 45 30.1521C47.2955 30.1521 49.534 29.4378 51.4052 28.1082C53.2764 26.7786 54.6875 24.8996 55.4427 22.7319H70.9583C73.9089 22.7319 76.7386 23.904 78.8249 25.9904C80.9112 28.0767 82.0833 30.9064 82.0833 33.8569V70.9403ZM37.5833 37.5653H19.0417C18.0582 37.5653 17.1149 37.956 16.4195 38.6514C15.724 39.3469 15.3333 40.2901 15.3333 41.2736V70.9403C15.3333 71.9238 15.724 72.867 16.4195 73.5625C17.1149 74.2579 18.0582 74.6486 19.0417 74.6486H37.5833C38.5668 74.6486 39.5101 74.2579 40.2055 73.5625C40.901 72.867 41.2917 71.9238 41.2917 70.9403V41.2736C41.2917 40.2901 40.901 39.3469 40.2055 38.6514C39.5101 37.956 38.5668 37.5653 37.5833 37.5653ZM33.875 67.2319H22.75V44.9819H33.875V67.2319ZM74.6667 56.1069C74.6667 57.0904 74.276 58.0337 73.5805 58.7291C72.8851 59.4246 71.9418 59.8153 70.9583 59.8153H52.4167C51.4332 59.8153 50.4899 59.4246 49.7945 58.7291C49.099 58.0337 48.7083 57.0904 48.7083 56.1069C48.7083 55.1234 49.099 54.1802 49.7945 53.4847C50.4899 52.7893 51.4332 52.3986 52.4167 52.3986H70.9583C71.9418 52.3986 72.8851 52.7893 73.5805 53.4847C74.276 54.1802 74.6667 55.1234 74.6667 56.1069ZM74.6667 41.2736C74.6667 42.2571 74.276 43.2003 73.5805 43.8958C72.8851 44.5912 71.9418 44.9819 70.9583 44.9819H52.4167C51.4332 44.9819 50.4899 44.5912 49.7945 43.8958C49.099 43.2003 48.7083 42.2571 48.7083 41.2736C48.7083 40.2901 49.099 39.3469 49.7945 38.6514C50.4899 37.956 51.4332 37.5653 52.4167 37.5653H70.9583C71.9418 37.5653 72.8851 37.956 73.5805 38.6514C74.276 39.3469 74.6667 40.2901 74.6667 41.2736ZM67.25 70.9403C67.25 71.9238 66.8593 72.867 66.1639 73.5625C65.4684 74.2579 64.5252 74.6486 63.5417 74.6486H52.4167C51.4332 74.6486 50.4899 74.2579 49.7945 73.5625C49.099 72.867 48.7083 71.9238 48.7083 70.9403C48.7083 69.9568 49.099 69.0135 49.7945 68.3181C50.4899 67.6226 51.4332 67.2319 52.4167 67.2319H63.5417C64.5252 67.2319 65.4684 67.6226 66.1639 68.3181C66.8593 69.0135 67.25 69.9568 67.25 70.9403Z" fill="#CCCCCC"/>
</svg>
