<svg width="361" height="361" viewBox="0 0 361 361" fill="none" xmlns="http://www.w3.org/2000/svg">
<mask id="mask0_194_2443" style="mask-type:alpha" maskUnits="userSpaceOnUse" x="0" y="0" width="361" height="361">
<rect width="361" height="361" fill="#D9D9D9"/>
</mask>
<g mask="url(#mask0_194_2443)">
<path d="M39.71 -201.938C41.643 -205.286 45.9241 -206.433 49.2721 -204.5L586.561 105.704C589.909 107.637 591.057 111.918 589.124 115.266L415.494 416.002C413.273 419.849 407.378 417.557 408.338 413.22C431.848 307.047 342.555 209.861 234.775 224.314L123.397 239.25C22.6933 247.15 -75.5904 205.734 -140.268 128.142L-146.146 121.089C-146.375 120.815 -146.408 120.428 -146.229 120.119L39.71 -201.938Z" fill="#008CD6"/>
<path d="M-124.859 -159.557C-124.859 -163.423 -121.725 -166.557 -117.859 -166.557H431.141C435.007 -166.557 438.141 -163.423 438.141 -159.557V140.512C438.141 144.433 432.632 145.301 431.427 141.569C402.136 50.9169 292.236 16.1521 216.138 73.4667L135.223 134.41C61.1475 184.107 -32.136 195.647 -116.089 165.5L-124.349 162.534C-124.655 162.424 -124.859 162.134 -124.859 161.809V-159.557Z" fill="#66C2EB"/>
</g>
</svg>
