<svg width="24" height="25" viewBox="0 0 24 25" fill="none" xmlns="http://www.w3.org/2000/svg">
<g clip-path="url(#clip0_781_10468)">
<path d="M23 11.4818H1C0.447715 11.4818 0 11.9295 0 12.4818C0 13.034 0.447715 13.4818 1 13.4818H23C23.5523 13.4818 24 13.034 24 12.4818C24 11.9295 23.5523 11.4818 23 11.4818Z" fill="#052744"/>
<path d="M23 4.48236H1C0.447715 4.48236 0 4.93008 0 5.48236C0 6.03464 0.447715 6.48236 1 6.48236H23C23.5523 6.48236 24 6.03464 24 5.48236C24 4.93008 23.5523 4.48236 23 4.48236Z" fill="#052744"/>
<path d="M23 18.4821H1C0.447715 18.4821 0 18.9298 0 19.4821C0 20.0343 0.447715 20.4821 1 20.4821H23C23.5523 20.4821 24 20.0343 24 19.4821C24 18.9298 23.5523 18.4821 23 18.4821Z" fill="#052744"/>
</g>
<defs>
<clipPath id="clip0_781_10468">
<rect width="24" height="24" fill="white" transform="translate(0 0.482056)"/>
</clipPath>
</defs>
</svg>
