<svg width="12" height="13" viewBox="0 0 12 13" fill="none" xmlns="http://www.w3.org/2000/svg">
<g id="fi-rr-money" clip-path="url(#clip0_562_8520)">
<path id="Vector" d="M9.5 10.4822H2.5C1.8372 10.4814 1.20178 10.2178 0.733106 9.7491C0.264437 9.28043 0.000790114 8.64501 -3.8147e-06 7.98221L-3.8147e-06 4.98221C0.000790114 4.31941 0.264437 3.68399 0.733106 3.21532C1.20178 2.74665 1.8372 2.483 2.5 2.48221H9.5C10.1628 2.483 10.7982 2.74665 11.2669 3.21532C11.7356 3.68399 11.9992 4.31941 12 4.98221V7.98221C11.9992 8.64501 11.7356 9.28043 11.2669 9.7491C10.7982 10.2178 10.1628 10.4814 9.5 10.4822ZM2.5 3.48221C2.10217 3.48221 1.72064 3.64024 1.43934 3.92155C1.15803 4.20285 0.999996 4.58438 0.999996 4.98221V7.98221C0.999996 8.38003 1.15803 8.76156 1.43934 9.04287C1.72064 9.32417 2.10217 9.48221 2.5 9.48221H9.5C9.89782 9.48221 10.2794 9.32417 10.5607 9.04287C10.842 8.76156 11 8.38003 11 7.98221V4.98221C11 4.58438 10.842 4.20285 10.5607 3.92155C10.2794 3.64024 9.89782 3.48221 9.5 3.48221H2.5ZM6 8.48221C5.60443 8.48221 5.21775 8.36491 4.88886 8.14515C4.55996 7.92538 4.30361 7.61303 4.15224 7.24758C4.00086 6.88212 3.96126 6.47999 4.03843 6.09203C4.1156 5.70407 4.30608 5.3477 4.58578 5.06799C4.86549 4.78829 5.22185 4.59781 5.60982 4.52064C5.99778 4.44347 6.39991 4.48307 6.76536 4.63445C7.13082 4.78582 7.44317 5.04217 7.66294 5.37107C7.8827 5.69997 8 6.08665 8 6.48221C8 7.01264 7.78928 7.52135 7.41421 7.89642C7.03914 8.27149 6.53043 8.48221 6 8.48221ZM6 5.48221C5.80222 5.48221 5.60888 5.54086 5.44443 5.65074C5.27998 5.76062 5.1518 5.9168 5.07612 6.09952C5.00043 6.28225 4.98063 6.48332 5.01921 6.6773C5.0578 6.87128 5.15304 7.04946 5.29289 7.18931C5.43274 7.32917 5.61092 7.42441 5.80491 7.46299C5.99889 7.50158 6.19995 7.48178 6.38268 7.40609C6.56541 7.3304 6.72158 7.20223 6.83147 7.03778C6.94135 6.87333 7 6.67999 7 6.48221C7 6.21699 6.89464 5.96264 6.7071 5.7751C6.51957 5.58757 6.26521 5.48221 6 5.48221ZM2.5 4.48221C2.40111 4.48221 2.30444 4.51153 2.22221 4.56647C2.13999 4.62141 2.0759 4.6995 2.03806 4.79087C2.00021 4.88223 1.99031 4.98276 2.0096 5.07975C2.0289 5.17674 2.07652 5.26584 2.14644 5.33576C2.21637 5.40569 2.30546 5.45331 2.40245 5.4726C2.49944 5.49189 2.59997 5.48199 2.69134 5.44415C2.7827 5.4063 2.86079 5.34222 2.91573 5.25999C2.97067 5.17777 3 5.0811 3 4.98221C3 4.8496 2.94732 4.72242 2.85355 4.62865C2.75978 4.53489 2.6326 4.48221 2.5 4.48221ZM9 4.98221C9 5.0811 9.02932 5.17777 9.08426 5.25999C9.1392 5.34222 9.21729 5.4063 9.30865 5.44415C9.40002 5.48199 9.50055 5.49189 9.59754 5.4726C9.69453 5.45331 9.78362 5.40569 9.85355 5.33576C9.92348 5.26584 9.9711 5.17674 9.99039 5.07975C10.0097 4.98276 9.99978 4.88223 9.96194 4.79087C9.92409 4.6995 9.86001 4.62141 9.77778 4.56647C9.69556 4.51153 9.59889 4.48221 9.5 4.48221C9.36739 4.48221 9.24021 4.53489 9.14644 4.62865C9.05267 4.72242 9 4.8496 9 4.98221ZM2.5 7.48221C2.40111 7.48221 2.30444 7.51153 2.22221 7.56647C2.13999 7.62141 2.0759 7.6995 2.03806 7.79087C2.00021 7.88223 1.99031 7.98276 2.0096 8.07975C2.0289 8.17674 2.07652 8.26584 2.14644 8.33576C2.21637 8.40569 2.30546 8.45331 2.40245 8.4726C2.49944 8.49189 2.59997 8.48199 2.69134 8.44415C2.7827 8.4063 2.86079 8.34222 2.91573 8.25999C2.97067 8.17777 3 8.0811 3 7.98221C3 7.8496 2.94732 7.72242 2.85355 7.62865C2.75978 7.53489 2.6326 7.48221 2.5 7.48221ZM9 7.98221C9 8.0811 9.02932 8.17777 9.08426 8.25999C9.1392 8.34222 9.21729 8.4063 9.30865 8.44415C9.40002 8.48199 9.50055 8.49189 9.59754 8.4726C9.69453 8.45331 9.78362 8.40569 9.85355 8.33576C9.92348 8.26584 9.9711 8.17674 9.99039 8.07975C10.0097 7.98276 9.99978 7.88223 9.96194 7.79087C9.92409 7.6995 9.86001 7.62141 9.77778 7.56647C9.69556 7.51153 9.59889 7.48221 9.5 7.48221C9.36739 7.48221 9.24021 7.53489 9.14644 7.62865C9.05267 7.72242 9 7.8496 9 7.98221Z" fill="#404040"/>
</g>
<defs>
<clipPath id="clip0_562_8520">
<rect width="12" height="12" fill="white" transform="translate(0 0.482056)"/>
</clipPath>
</defs>
</svg>
