<svg width="50" height="51" viewBox="0 0 50 51" fill="none" xmlns="http://www.w3.org/2000/svg">
<g id="Frame" opacity="0.3" clip-path="url(#clip0_193_1968)">
<path id="Vector" d="M25 5.25769C13.6917 5.25769 4.51666 14.4244 4.51666 25.741C4.51666 37.0577 13.6833 46.2244 25 46.2244C36.3167 46.2244 45.4833 37.0577 45.4833 25.741C45.4833 14.4244 36.3083 5.25769 25 5.25769ZM22.9833 13.191C23.0583 13.1077 23.1667 13.066 23.2833 13.066H26.7167C26.825 13.066 26.9333 13.1077 27.0167 13.191C27.0917 13.2744 27.1417 13.3827 27.1333 13.491L26.6333 30.666C26.6333 30.891 26.4417 31.0744 26.2167 31.0744H23.7833C23.5583 31.0744 23.375 30.8994 23.3667 30.666L22.8667 13.491C22.8667 13.3827 22.9083 13.266 22.9833 13.191ZM25 38.4077C23.5333 38.4077 22.475 37.2994 22.475 35.7744C22.475 34.2494 23.5583 33.141 25 33.141C26.4417 33.141 27.525 34.2244 27.525 35.7744C27.525 37.3244 26.4583 38.4077 25 38.4077Z" fill="#595959"/>
</g>
<defs>
<clipPath id="clip0_193_1968">
<rect width="50" height="50" fill="white" transform="translate(0 0.741028)"/>
</clipPath>
</defs>
</svg>
