<svg xmlns="http://www.w3.org/2000/svg" width="12" height="13" viewBox="0 0 12 13" fill="none">
  <g clip-path="url(#clip0_144_134)">
    <path d="M11.5376 8.86306C11.8273 9.15361 11.9901 9.54721 11.9901 9.95756C11.9901 10.3679 11.8273 10.7615 11.5376 11.0521L11.0816 11.5771C6.9861 15.4961 -2.97791 5.53506 0.88159 1.42707L1.45659 0.92707C1.74741 0.645343 2.13746 0.48944 2.54234 0.493089C2.94723 0.496739 3.3344 0.659647 3.62009 0.94657C3.63559 0.96157 4.56159 2.16557 4.56159 2.16557C4.83555 2.45484 4.98799 2.83826 4.98743 3.23667C4.98687 3.63508 4.83336 4.01807 4.55859 4.30657L3.97959 5.03457C4.30009 5.81311 4.77122 6.52061 5.36595 7.11651C5.96065 7.71246 6.66725 8.18501 7.4451 8.50706L8.1776 7.92456C8.4655 7.64906 8.8485 7.49506 9.247 7.49451C9.6455 7.49396 10.0289 7.6469 10.3176 7.92156C10.3176 7.92156 11.5221 8.84805 11.5376 8.86306ZM10.8501 9.59006C10.8501 9.59006 9.6536 8.66906 9.6381 8.65406C9.5351 8.55196 9.3959 8.49466 9.25085 8.49466C9.1058 8.49466 8.9666 8.55196 8.8636 8.65406C8.8501 8.66706 7.8416 9.47106 7.8416 9.47106C7.77365 9.52516 7.69275 9.56061 7.6069 9.57396C7.5211 9.58726 7.43325 9.578 7.3521 9.54706C6.3438 9.17196 5.42795 8.5844 4.66664 7.82431C3.90532 7.06416 3.31633 6.14925 2.93959 5.14157C2.90619 5.0593 2.8953 4.96961 2.90805 4.88174C2.92079 4.79387 2.9567 4.71097 3.01209 4.64157C3.01209 4.64157 3.81609 3.63457 3.82959 3.62157C3.93173 3.51857 3.98903 3.37938 3.98903 3.23432C3.98903 3.08926 3.93173 2.95008 3.82959 2.84707C3.81459 2.83207 2.89359 1.63457 2.89359 1.63457C2.78904 1.54083 2.6526 1.49062 2.51222 1.49425C2.37184 1.49787 2.23816 1.55505 2.13859 1.65407L1.56359 2.15407C-1.25741 5.54556 7.3786 13.7026 10.3501 10.8956L10.8061 10.3701C10.9136 10.2714 10.9784 10.1347 10.9866 9.98901C10.9948 9.84331 10.9458 9.70021 10.8501 9.59006Z" fill="#404040"/>
  </g>
  <defs>
    <clipPath id="clip0_144_134">
      <rect width="12" height="12" fill="white" transform="translate(0 0.482056)"/>
    </clipPath>
  </defs>
</svg>