<svg width="90" height="90" viewBox="0 0 90 90" fill="none" xmlns="http://www.w3.org/2000/svg">
<g clip-path="url(#clip0_666_4185)">
<path d="M70.9583 0.481934H19.0417C14.1259 0.487822 9.41319 2.4432 5.93723 5.91917C2.46127 9.39513 0.505888 14.1079 0.5 19.0236L0.5 70.9403C0.505888 75.856 2.46127 80.5687 5.93723 84.0447C9.41319 87.5207 14.1259 89.476 19.0417 89.4819H70.9583C75.8741 89.476 80.5868 87.5207 84.0628 84.0447C87.5387 80.5687 89.4941 75.856 89.5 70.9403V19.0236C89.4941 14.1079 87.5387 9.39513 84.0628 5.91917C80.5868 2.4432 75.8741 0.487822 70.9583 0.481934V0.481934ZM26.4583 82.0653V78.3569C26.4583 73.4394 28.4118 68.7232 31.8891 65.246C35.3663 61.7688 40.0824 59.8153 45 59.8153C49.9176 59.8153 54.6337 61.7688 58.1109 65.246C61.5882 68.7232 63.5417 73.4394 63.5417 78.3569V82.0653H26.4583ZM82.0833 70.9403C82.0833 73.8908 80.9112 76.7205 78.8249 78.8068C76.7386 80.8932 73.9089 82.0653 70.9583 82.0653V78.3569C70.9583 71.4724 68.2234 64.8698 63.3553 60.0016C58.4872 55.1335 51.8846 52.3986 45 52.3986C38.1154 52.3986 31.5128 55.1335 26.6447 60.0016C21.7766 64.8698 19.0417 71.4724 19.0417 78.3569V82.0653C16.0911 82.0653 13.2614 80.8932 11.1751 78.8068C9.08876 76.7205 7.91667 73.8908 7.91667 70.9403V19.0236C7.91667 16.0731 9.08876 13.2434 11.1751 11.157C13.2614 9.07069 16.0911 7.8986 19.0417 7.8986H70.9583C73.9089 7.8986 76.7386 9.07069 78.8249 11.157C80.9112 13.2434 82.0833 16.0731 82.0833 19.0236V70.9403Z" fill="#CCCCCC"/>
<path d="M45.0003 15.3164C42.0666 15.3164 39.1987 16.1864 36.7594 17.8163C34.32 19.4462 32.4188 21.7628 31.2961 24.4733C30.1734 27.1837 29.8797 30.1662 30.452 33.0436C31.0244 35.921 32.4371 38.564 34.5116 40.6385C36.5861 42.713 39.2291 44.1257 42.1065 44.6981C44.9839 45.2704 47.9664 44.9767 50.6768 43.854C53.3872 42.7313 55.7039 40.83 57.3338 38.3907C58.9637 35.9514 59.8337 33.0835 59.8337 30.1497C59.8337 26.2157 58.2709 22.4428 55.4891 19.661C52.7073 16.8792 48.9344 15.3164 45.0003 15.3164ZM45.0003 37.5664C43.5335 37.5664 42.0995 37.1314 40.8799 36.3165C39.6602 35.5015 38.7096 34.3432 38.1482 32.988C37.5869 31.6328 37.44 30.1415 37.7262 28.7028C38.0123 27.2641 38.7187 25.9426 39.756 24.9054C40.7932 23.8681 42.1147 23.1618 43.5534 22.8756C44.9921 22.5894 46.4834 22.7363 47.8386 23.2976C49.1938 23.859 50.3521 24.8096 51.1671 26.0293C51.982 27.2489 52.417 28.6829 52.417 30.1497C52.417 32.1168 51.6356 34.0032 50.2447 35.3941C48.8538 36.785 46.9674 37.5664 45.0003 37.5664Z" fill="#CCCCCC"/>
</g>
<defs>
<clipPath id="clip0_666_4185">
<rect width="89" height="89" fill="white" transform="translate(0.5 0.481934)"/>
</clipPath>
</defs>
</svg>
