<svg width="18" height="19" viewBox="0 0 18 19" fill="none" xmlns="http://www.w3.org/2000/svg">
<rect y="0.482056" width="18" height="18" rx="9" fill="#F44336"/>
<path d="M13.5 4.98204C13.3593 4.84144 13.1686 4.76245 12.9697 4.76245C12.7709 4.76245 12.5801 4.84144 12.4395 4.98204L8.99999 8.42154L5.56049 4.98204C5.41984 4.84144 5.22911 4.76245 5.03024 4.76245C4.83136 4.76245 4.64063 4.84144 4.49999 4.98204C4.35938 5.12269 4.2804 5.31342 4.2804 5.51229C4.2804 5.71116 4.35938 5.9019 4.49999 6.04254L7.93949 9.48204L4.49999 12.9215C4.35938 13.0622 4.2804 13.2529 4.2804 13.4518C4.2804 13.6507 4.35938 13.8414 4.49999 13.982C4.64063 14.1226 4.83136 14.2016 5.03024 14.2016C5.22911 14.2016 5.41984 14.1226 5.56049 13.982L8.99999 10.5425L12.4395 13.982C12.5801 14.1226 12.7709 14.2016 12.9697 14.2016C13.1686 14.2016 13.3593 14.1226 13.5 13.982C13.6406 13.8414 13.7196 13.6507 13.7196 13.4518C13.7196 13.2529 13.6406 13.0622 13.5 12.9215L10.0605 9.48204L13.5 6.04254C13.6406 5.9019 13.7196 5.71116 13.7196 5.51229C13.7196 5.31342 13.6406 5.12269 13.5 4.98204Z" fill="white"/>
</svg>
