<svg width="20" height="20" viewBox="0 0 20 20" fill="none" xmlns="http://www.w3.org/2000/svg">
<g id="Frame 427319471">
<g id="Group 427320094">
<path id="Vector" d="M18.0072 17.311L14.4931 13.7969C15.4938 12.6356 16.1045 11.1288 16.1045 9.47727C16.1045 5.81829 13.1363 2.85 9.47727 2.85C5.81829 2.85 2.85 5.81829 2.85 9.47727C2.85 13.1363 5.81829 16.1045 9.47727 16.1045C11.1319 16.1045 12.6388 15.494 13.797 14.4932L17.311 18.0072C17.4002 18.0964 17.5234 18.15 17.6591 18.15C17.9294 18.15 18.15 17.9294 18.15 17.6591C18.15 17.5234 18.0964 17.4002 18.0072 17.311ZM9.47727 15.1227C6.35898 15.1227 3.83182 12.5956 3.83182 9.47727C3.83182 6.35898 6.35898 3.83182 9.47727 3.83182C12.5956 3.83182 15.1227 6.35898 15.1227 9.47727C15.1227 12.5956 12.5956 15.1227 9.47727 15.1227Z" fill="#008CD6" stroke="#008CD6" stroke-width="0.3"/>
</g>
</g>
</svg>
