<svg width="44" height="45" viewBox="0 0 44 45" fill="none" xmlns="http://www.w3.org/2000/svg">
<rect y="0.482056" width="44" height="44" rx="5" fill="#008CD6"/>
<g clip-path="url(#clip0_390_4333)">
<path d="M33.7068 32.7758L27.7378 26.8068C29.3644 24.8174 30.1642 22.2789 29.9716 19.7164C29.7791 17.1538 28.609 14.7633 26.7034 13.0393C24.7977 11.3153 22.3024 10.3897 19.7334 10.4539C17.1645 10.5182 14.7185 11.5673 12.9014 13.3844C11.0843 15.2015 10.0351 17.6475 9.97091 20.2165C9.90667 22.7854 10.8323 25.2808 12.5563 27.1864C14.2803 29.092 16.6708 30.2621 19.2333 30.4547C21.7959 30.6472 24.3344 29.8474 26.3238 28.2208L32.2928 34.1898C32.4814 34.372 32.734 34.4728 32.9962 34.4705C33.2584 34.4682 33.5092 34.363 33.6946 34.1776C33.88 33.9922 33.9852 33.7414 33.9875 33.4792C33.9897 33.217 33.8889 32.9644 33.7068 32.7758ZM19.9998 28.4828C18.4175 28.4828 16.8708 28.0136 15.5552 27.1346C14.2396 26.2555 13.2142 25.0061 12.6087 23.5443C12.0032 22.0825 11.8448 20.4739 12.1535 18.9221C12.4622 17.3702 13.2241 15.9448 14.3429 14.826C15.4617 13.7071 16.8872 12.9452 18.4391 12.6365C19.9909 12.3279 21.5994 12.4863 23.0613 13.0918C24.5231 13.6973 25.7725 14.7227 26.6515 16.0383C27.5306 17.3538 27.9998 18.9006 27.9998 20.4828C27.9974 22.6038 27.1538 24.6373 25.654 26.137C24.1542 27.6368 22.1208 28.4804 19.9998 28.4828Z" fill="white"/>
</g>
<defs>
<clipPath id="clip0_390_4333">
<rect width="24" height="24" fill="white" transform="translate(10 10.4821)"/>
</clipPath>
</defs>
</svg>
