<svg width="18" height="19" viewBox="0 0 18 19" fill="none" xmlns="http://www.w3.org/2000/svg">
<g id="fi-rr-share" clip-path="url(#clip0_858_6766)">
<path id="Vector" d="M14.4998 11.4829C13.9328 11.4833 13.3743 11.6218 12.8727 11.8862C12.3711 12.1507 11.9414 12.5332 11.6206 13.0009L6.73884 10.7966C7.08557 9.95933 7.08692 9.01887 6.74259 8.18061L11.6176 5.96511C12.093 6.65267 12.7991 7.14708 13.6078 7.35864C14.4165 7.5702 15.2742 7.48491 16.0254 7.11823C16.7766 6.75156 17.3715 6.12778 17.7022 5.36006C18.0329 4.59233 18.0775 3.73151 17.8279 2.93374C17.5782 2.13596 17.0509 1.45408 16.3416 1.01177C15.6323 0.569468 14.788 0.396037 13.9617 0.52294C13.1355 0.649842 12.3821 1.06867 11.8383 1.70346C11.2944 2.33825 10.996 3.14694 10.9973 3.98286C11.0005 4.18071 11.0206 4.37792 11.0573 4.57236L5.87484 6.92736C5.37709 6.46102 4.75397 6.15024 4.08202 6.03318C3.41007 5.91612 2.71856 5.9979 2.09244 6.26845C1.46633 6.53901 0.932881 6.98656 0.557634 7.55613C0.182387 8.1257 -0.0183141 8.79248 -0.0198127 9.47454C-0.0213113 10.1566 0.176458 10.8243 0.549198 11.3955C0.921939 11.9667 1.45342 12.4166 2.07833 12.6899C2.70325 12.9632 3.3944 13.048 4.06686 12.9339C4.73931 12.8198 5.3638 12.5118 5.86359 12.0476L11.0596 14.3936C11.0235 14.5879 11.0037 14.7848 11.0003 14.9824C11.0002 15.6747 11.2054 16.3515 11.5899 16.9273C11.9745 17.503 12.5211 17.9518 13.1608 18.2168C13.8004 18.4818 14.5042 18.5512 15.1833 18.4161C15.8623 18.2811 16.4861 17.9477 16.9756 17.4582C17.4652 16.9686 17.7986 16.3448 17.9336 15.6658C18.0687 14.9867 17.9993 14.2829 17.7343 13.6433C17.4692 13.0037 17.0205 12.457 16.4448 12.0724C15.869 11.6879 15.1922 11.4827 14.4998 11.4829ZM14.4998 1.98261C14.8955 1.98246 15.2823 2.09965 15.6113 2.31935C15.9404 2.53905 16.1969 2.85139 16.3484 3.21688C16.4999 3.58236 16.5396 3.98457 16.4625 4.37263C16.3854 4.76069 16.195 5.11717 15.9152 5.39698C15.6355 5.6768 15.2791 5.86738 14.8911 5.94462C14.5031 6.02186 14.1008 5.98229 13.7353 5.83092C13.3698 5.67955 13.0573 5.42317 12.8375 5.09422C12.6177 4.76526 12.5003 4.3785 12.5003 3.98286C12.5007 3.45261 12.7115 2.94418 13.0864 2.56917C13.4612 2.19416 13.9696 1.9832 14.4998 1.98261ZM3.50034 11.4829C3.10469 11.483 2.71789 11.3658 2.38885 11.1461C2.05982 10.9264 1.80332 10.6141 1.65181 10.2486C1.5003 9.88311 1.46058 9.4809 1.53768 9.09284C1.61478 8.70478 1.80522 8.3483 2.08493 8.06848C2.36464 7.78867 2.72105 7.59809 3.10908 7.52085C3.49711 7.44361 3.89933 7.48317 4.26488 7.63455C4.63042 7.78592 4.94286 8.04229 5.16268 8.37125C5.38251 8.70021 5.49984 9.08696 5.49984 9.48261C5.49924 10.0128 5.28841 10.5211 4.91359 10.8961C4.53876 11.271 4.03052 11.4821 3.50034 11.4829ZM14.4998 16.9826C14.1042 16.9826 13.7175 16.8653 13.3886 16.6455C13.0596 16.4257 12.8032 16.1133 12.6518 15.7478C12.5005 15.3823 12.4608 14.9801 12.538 14.5921C12.6152 14.2041 12.8057 13.8477 13.0854 13.568C13.3652 13.2882 13.7216 13.0977 14.1096 13.0205C14.4976 12.9434 14.8998 12.983 15.2653 13.1344C15.6308 13.2858 15.9432 13.5421 16.163 13.8711C16.3828 14.2 16.5001 14.5867 16.5001 14.9824C16.4997 15.5127 16.2888 16.0213 15.9138 16.3963C15.5388 16.7713 15.0302 16.9822 14.4998 16.9826Z" fill="#404040"/>
</g>
<defs>
<clipPath id="clip0_858_6766">
<rect width="18" height="18" fill="white" transform="translate(0 0.482422)"/>
</clipPath>
</defs>
</svg>
