<svg width="24" height="24" viewBox="0 0 24 24" fill="none" xmlns="http://www.w3.org/2000/svg">
<g id="Group 427320091">
<path id="Vector" d="M11.5715 10.5002C10.763 10.5002 10.1104 11.1528 10.1104 11.9612C10.1104 12.7697 10.763 13.4223 11.5715 13.4223C12.3799 13.4223 13.0325 12.7697 13.0325 11.9612C13.0325 11.1528 12.3799 10.5002 11.5715 10.5002ZM11.5715 7.09112C8.88315 7.09112 6.70133 9.27294 6.70133 11.9612C6.70133 14.6496 8.88315 16.8314 11.5715 16.8314C14.2598 16.8314 16.4416 14.6496 16.4416 11.9612C16.4416 9.27294 14.2598 7.09112 11.5715 7.09112ZM11.5715 15.8574C9.41887 15.8574 7.67536 14.1138 7.67536 11.9612C7.67536 9.80865 9.41887 8.06514 11.5715 8.06514C13.7241 8.06514 15.4676 9.80865 15.4676 11.9612C15.4676 14.1138 13.7241 15.8574 11.5715 15.8574ZM11.5715 5.14307C5.65426 5.14307 0.857178 10.0132 0.857178 11.9612C0.857178 13.9093 5.65426 18.7794 11.5715 18.7794C17.4887 18.7794 22.2857 13.9093 22.2857 11.9612C22.2857 10.0132 17.4887 5.14307 11.5715 5.14307ZM11.5715 17.8054C6.19484 17.8054 1.8312 13.6317 1.8312 11.9612C1.8312 10.2908 6.19484 6.11709 11.5715 6.11709C16.9481 6.11709 21.3117 10.2908 21.3117 11.9612C21.3117 13.6317 16.953 17.8054 11.5715 17.8054Z" fill="#052744"/>
</g>
</svg>
