<svg width="12" height="13" viewBox="0 0 12 13" fill="none" xmlns="http://www.w3.org/2000/svg">
<g id="fi-rr-bell" clip-path="url(#clip0_762_5050)">
<path id="Vector" d="M11.2774 7.31302L10.3274 3.89502C10.049 2.89369 9.4438 2.01417 8.6081 1.39626C7.7724 0.778349 6.75413 0.457516 5.71516 0.484756C4.67619 0.511996 3.67614 0.885746 2.87396 1.5466C2.07179 2.20745 1.51353 3.11747 1.28793 4.13202L0.55243 7.43952C0.471188 7.80499 0.473066 8.18404 0.557926 8.54868C0.642787 8.91333 0.808462 9.25426 1.04272 9.5463C1.27698 9.83834 1.57384 10.074 1.91139 10.236C2.24893 10.398 2.61854 10.482 2.99293 10.482H3.54993C3.66469 11.0472 3.97129 11.5553 4.4178 11.9202C4.86431 12.2852 5.42325 12.4845 5.99993 12.4845C6.57661 12.4845 7.13555 12.2852 7.58206 11.9202C8.02856 11.5553 8.33517 11.0472 8.44993 10.482H8.86893C9.25434 10.4821 9.63453 10.393 9.97981 10.2217C10.3251 10.0505 10.6261 9.80177 10.8593 9.49495C11.0926 9.18814 11.2517 8.83155 11.3243 8.45304C11.3969 8.07454 11.3811 7.68437 11.2779 7.31302H11.2774ZM5.99993 11.482C5.6908 11.4807 5.38962 11.384 5.13758 11.205C4.88555 11.026 4.69497 10.7735 4.59193 10.482H7.40793C7.30489 10.7735 7.11431 11.026 6.86228 11.205C6.61024 11.384 6.30906 11.4807 5.99993 11.482ZM10.0629 8.88952C9.9236 9.07436 9.74309 9.22415 9.53573 9.327C9.32838 9.42986 9.09989 9.48294 8.86843 9.48202H2.99293C2.76832 9.48199 2.54659 9.43151 2.3441 9.33431C2.14161 9.23712 1.96353 9.09569 1.82301 8.92047C1.68249 8.74525 1.58311 8.54071 1.53221 8.32195C1.48131 8.10318 1.48019 7.87578 1.52893 7.65652L2.26393 4.34852C2.44111 3.55163 2.87958 2.83682 3.50966 2.31775C4.13973 1.79867 4.92524 1.50511 5.74132 1.48373C6.55739 1.46235 7.35719 1.71438 8.01358 2.19976C8.66997 2.68513 9.14527 3.376 9.36393 4.16252L10.3139 7.58052C10.3767 7.80321 10.3867 8.03746 10.3431 8.26469C10.2996 8.49191 10.2036 8.70585 10.0629 8.88952Z" fill="#404040"/>
</g>
<defs>
<clipPath id="clip0_762_5050">
<rect width="12" height="12" fill="white" transform="translate(0 0.482056)"/>
</clipPath>
</defs>
</svg>
