<svg width="12" height="13" viewBox="0 0 12 13" fill="none" xmlns="http://www.w3.org/2000/svg">
<g id="fi-rr-following" clip-path="url(#clip0_41_2865)">
<path id="Vector" d="M4.5 6.48194C5.09334 6.48194 5.67336 6.30599 6.16671 5.97634C6.66006 5.6467 7.04458 5.17816 7.27164 4.62999C7.4987 4.08181 7.55811 3.47861 7.44236 2.89666C7.3266 2.31472 7.04088 1.78017 6.62132 1.36061C6.20176 0.941057 5.66721 0.655335 5.08527 0.539579C4.50333 0.423823 3.90013 0.483233 3.35195 0.710296C2.80377 0.937359 2.33524 1.32188 2.00559 1.81522C1.67595 2.30857 1.5 2.88859 1.5 3.48194C1.50079 4.27734 1.81712 5.03994 2.37956 5.60238C2.94199 6.16482 3.70459 6.48114 4.5 6.48194ZM4.5 1.48193C4.89556 1.48193 5.28224 1.59923 5.61114 1.819C5.94004 2.03876 6.19638 2.35112 6.34776 2.71657C6.49914 3.08202 6.53874 3.48415 6.46157 3.87212C6.3844 4.26008 6.19392 4.61644 5.91421 4.89615C5.63451 5.17585 5.27814 5.36634 4.89018 5.44351C4.50222 5.52068 4.10009 5.48107 3.73463 5.32969C3.36918 5.17832 3.05682 4.92197 2.83706 4.59308C2.6173 4.26418 2.5 3.8775 2.5 3.48194C2.5 2.9515 2.71071 2.44279 3.08579 2.06772C3.46086 1.69265 3.96957 1.48193 4.5 1.48193Z" fill="#008CD6"/>
<path id="Vector_2" d="M4.5 7.48193C3.30697 7.48339 2.16323 7.95796 1.31963 8.80156C0.476029 9.64515 0.00145548 10.7889 0 11.9819C0 12.1145 0.0526784 12.2417 0.146447 12.3355C0.240215 12.4292 0.367392 12.4819 0.5 12.4819C0.632608 12.4819 0.759785 12.4292 0.853553 12.3355C0.947322 12.2417 1 12.1145 1 11.9819C1 11.0537 1.36875 10.1634 2.02513 9.50705C2.6815 8.85068 3.57174 8.48193 4.5 8.48193C5.42826 8.48193 6.3185 8.85068 6.97487 9.50705C7.63125 10.1634 8 11.0537 8 11.9819C8 12.1145 8.05268 12.2417 8.14645 12.3355C8.24021 12.4292 8.36739 12.4819 8.5 12.4819C8.63261 12.4819 8.75979 12.4292 8.85355 12.3355C8.94732 12.2417 9 12.1145 9 11.9819C8.99854 10.7889 8.52397 9.64515 7.68037 8.80156C6.83677 7.95796 5.69303 7.48339 4.5 7.48193Z" fill="#008CD6"/>
<path id="Vector_3" d="M10.9999 4.41943C10.7217 4.4333 10.4602 4.55682 10.2728 4.76297C10.0854 4.96912 9.98728 5.24111 9.99992 5.51943C10.0126 5.24111 9.91444 4.96912 9.72703 4.76297C9.53962 4.55682 9.27818 4.4333 8.99992 4.41943C8.72166 4.4333 8.46022 4.55682 8.27281 4.76297C8.0854 4.96912 7.98728 5.24111 7.99993 5.51943C7.99993 6.38443 9.12792 7.39793 9.68992 7.84893C9.77789 7.91937 9.88723 7.95774 9.99992 7.95774C10.1126 7.95774 10.2219 7.91937 10.3099 7.84893C10.8719 7.39893 11.9999 6.38443 11.9999 5.51943C12.0126 5.24111 11.9144 4.96912 11.727 4.76297C11.5396 4.55682 11.2782 4.4333 10.9999 4.41943Z" fill="#008CD6"/>
</g>
<defs>
<clipPath id="clip0_41_2865">
<rect width="12" height="12" fill="white" transform="translate(0 0.481934)"/>
</clipPath>
</defs>
</svg>
