<svg width="38" height="38" viewBox="0 0 38 38" fill="none" xmlns="http://www.w3.org/2000/svg">
<g clip-path="url(#clip0_885_6144)">
<path d="M30.0833 0H7.91667C5.81781 0.00251411 3.80563 0.837396 2.32151 2.32151C0.837396 3.80563 0.00251411 5.81781 0 7.91667L0 30.0833C0.00251411 32.1822 0.837396 34.1944 2.32151 35.6785C3.80563 37.1626 5.81781 37.9975 7.91667 38H30.0833C32.1822 37.9975 34.1944 37.1626 35.6785 35.6785C37.1626 34.1944 37.9975 32.1822 38 30.0833V7.91667C37.9975 5.81781 37.1626 3.80563 35.6785 2.32151C34.1944 0.837396 32.1822 0.00251411 30.0833 0V0ZM34.8333 30.0833C34.8333 31.3431 34.3329 32.5513 33.4421 33.4421C32.5513 34.3329 31.3431 34.8333 30.0833 34.8333H7.91667C6.65689 34.8333 5.44871 34.3329 4.55791 33.4421C3.66711 32.5513 3.16667 31.3431 3.16667 30.0833V7.91667C3.16667 6.65689 3.66711 5.44871 4.55791 4.55791C5.44871 3.66711 6.65689 3.16667 7.91667 3.16667H30.0833C31.3431 3.16667 32.5513 3.66711 33.4421 4.55791C34.3329 5.44871 34.8333 6.65689 34.8333 7.91667V30.0833Z" fill="#489B00"/>
<path d="M14.7771 25.2052L8.57204 19.0001C8.27512 18.7033 7.87247 18.5366 7.45262 18.5366C7.03278 18.5366 6.63013 18.7033 6.33321 19.0001C6.03638 19.2971 5.86963 19.6997 5.86963 20.1196C5.86963 20.5394 6.03638 20.942 6.33321 21.239L12.5383 27.444C12.8324 27.7382 13.1815 27.9716 13.5658 28.1308C13.9501 28.29 14.362 28.372 14.7779 28.372C15.1939 28.372 15.6058 28.29 15.99 28.1308C16.3743 27.9716 16.7235 27.7382 17.0175 27.444L31.6665 12.7951C31.9634 12.4981 32.1301 12.0955 32.1301 11.6756C32.1301 11.2558 31.9634 10.8531 31.6665 10.5562C31.3696 10.2594 30.967 10.0927 30.5471 10.0927C30.1273 10.0927 29.7246 10.2594 29.4277 10.5562L14.7771 25.2052Z" fill="#489B00"/>
</g>
<defs>
<clipPath id="clip0_885_6144">
<rect width="38" height="38" fill="white"/>
</clipPath>
</defs>
</svg>
