<svg width="46" height="47" viewBox="0 0 46 47" fill="none" xmlns="http://www.w3.org/2000/svg">
<path d="M23 43.3481C34.1147 43.3481 43.125 34.3379 43.125 23.2231C43.125 12.1084 34.1147 3.09814 23 3.09814C11.8853 3.09814 2.875 12.1084 2.875 23.2231C2.875 34.3379 11.8853 43.3481 23 43.3481Z" fill="white" stroke="#DDDDDD" stroke-width="1.2" stroke-linecap="round" stroke-linejoin="round"/>
<path d="M28.15 18.0481C28.15 20.8924 25.8443 23.1981 23 23.1981C20.1557 23.1981 17.85 20.8924 17.85 18.0481C17.85 15.2038 20.1557 12.8981 23 12.8981C25.8443 12.8981 28.15 15.2038 28.15 18.0481Z" stroke="#008CD6" stroke-width="1.2"/>
<path d="M13.8 33.3272C14.1834 30.2605 16.56 24.1272 23 24.1272C29.44 24.1272 31.8167 30.2605 32.2 33.3272" stroke="#008CD6" stroke-width="1.2" stroke-linecap="round"/>
</svg>
