<svg width="12" height="13" viewBox="0 0 12 13" fill="none" xmlns="http://www.w3.org/2000/svg">
<g clip-path="url(#clip0_570_9896)">
<path d="M6 5.48193C5.60218 5.48193 5.22064 5.3239 4.93934 5.04259C4.65804 4.76129 4.5 4.37976 4.5 3.98193C4.5 3.58411 4.65804 3.20258 4.93934 2.92127C5.22064 2.63997 5.60218 2.48193 6 2.48193C6.39782 2.48193 6.77936 2.63997 7.06066 2.92127C7.34196 3.20258 7.5 3.58411 7.5 3.98193C7.5 4.37976 7.34196 4.76129 7.06066 5.04259C6.77936 5.3239 6.39782 5.48193 6 5.48193ZM4.484 8.10643C4.58682 7.7852 4.78903 7.50494 5.06147 7.30609C5.3339 7.10724 5.66247 7.00009 5.99975 7.00009C6.33704 7.00009 6.6656 7.10724 6.93803 7.30609C7.21047 7.50494 7.41268 7.7852 7.5155 8.10643C7.54865 8.23493 7.63149 8.345 7.7458 8.41242C7.8601 8.47983 7.9965 8.49909 8.125 8.46593C8.2535 8.43278 8.36356 8.34994 8.43098 8.23564C8.4984 8.12134 8.51765 7.98493 8.4845 7.85643C7.829 5.38293 4.1695 5.38393 3.516 7.85643C3.49795 7.92052 3.49288 7.98756 3.50109 8.05364C3.50929 8.11971 3.53061 8.18347 3.5638 8.24119C3.59698 8.29891 3.64136 8.34943 3.69432 8.38977C3.74729 8.43011 3.80778 8.45946 3.87224 8.47611C3.93671 8.49276 4.00385 8.49637 4.06972 8.48672C4.1356 8.47707 4.19888 8.45436 4.25587 8.41993C4.31285 8.3855 4.36238 8.34003 4.40156 8.28619C4.44073 8.23236 4.46876 8.17125 4.484 8.10643ZM6.0045 12.3144C5.75782 12.3146 5.51971 12.224 5.3355 12.0599L3.4615 10.4819H2C1.46957 10.4819 0.960859 10.2712 0.585786 9.89615C0.210714 9.52107 0 9.01237 0 8.48193V2.48193C0 1.9515 0.210714 1.44279 0.585786 1.06772C0.960859 0.692647 1.46957 0.481934 2 0.481934L10 0.481934C10.5304 0.481934 11.0391 0.692647 11.4142 1.06772C11.7893 1.44279 12 1.9515 12 2.48193V8.48193C12 9.01237 11.7893 9.52107 11.4142 9.89615C11.0391 10.2712 10.5304 10.4819 10 10.4819H8.5735L6.65 12.0719C6.4718 12.2291 6.24211 12.3154 6.0045 12.3144ZM2 1.48193C1.73478 1.48193 1.48043 1.58729 1.29289 1.77483C1.10536 1.96236 1 2.21672 1 2.48193V8.48193C1 8.74715 1.10536 9.0015 1.29289 9.18904C1.48043 9.37658 1.73478 9.48193 2 9.48193H3.6445C3.76233 9.48194 3.87636 9.52355 3.9665 9.59943L5.9895 11.3044L8.0755 9.59643C8.16513 9.5224 8.27775 9.48191 8.394 9.48193H10C10.2652 9.48193 10.5196 9.37658 10.7071 9.18904C10.8946 9.0015 11 8.74715 11 8.48193V2.48193C11 2.21672 10.8946 1.96236 10.7071 1.77483C10.5196 1.58729 10.2652 1.48193 10 1.48193H2Z" fill="#008CD6"/>
</g>
<defs>
<clipPath id="clip0_570_9896">
<rect width="12" height="12" fill="white" transform="translate(0 0.481934)"/>
</clipPath>
</defs>
</svg>
